<svg width="158" height="158" viewBox="0 0 158 158" fill="none" xmlns="http://www.w3.org/2000/svg">
<g filter="url(#filter0_d_242_146)">
<rect x="4" width="150" height="150" rx="75" fill="#2B2B2B"/>
<rect x="5" y="1" width="148" height="148" rx="74" stroke="#F3B71A" stroke-width="2"/>
<path d="M70 84V81H76V69H73V66H76V63H82V81H88V84H70Z" fill="white"/>
<path d="M124.759 96.0127L124.578 96.3832L124.378 96.745L124.158 97.0984L123.919 97.4436L123.66 97.7807L123.381 98.1101L123.082 98.4318L122.764 98.7463L122.426 99.0537L122.068 99.3543L121.691 99.6482L121.294 99.9359L120.878 100.217L120.443 100.493L119.988 100.763L119.515 101.028L119.022 101.288L118.512 101.543L117.982 101.793L117.435 102.04L116.87 102.282L116.287 102.52L115.686 102.755L115.069 102.986L114.435 103.214L113.784 103.439L113.117 103.662L112.434 103.882L111.736 104.1L111.023 104.316L110.295 104.531L109.553 104.743L108.797 104.954L108.028 105.164L107.246 105.373L106.451 105.58L105.644 105.787L104.825 105.993L103.996 106.199L103.156 106.404L102.305 106.609L101.446 106.813L100.577 107.017L99.6991 107.222L98.8137 107.426L97.9207 107.63L97.0208 107.834L96.1145 108.038L95.2023 108.242L94.2849 108.447L79.3463 111.674L78.4247 111.867L77.5078 112.058L76.596 112.247L75.6899 112.433L74.79 112.616L73.8967 112.797L73.0105 112.974L72.1319 113.148L71.2613 113.318L70.3992 113.483L69.5459 113.645L68.7021 113.801L67.8679 113.953L67.0439 114.1L66.2304 114.24L65.4277 114.375L64.6363 114.504L63.8564 114.626L63.0885 114.741L62.3327 114.849L61.5894 114.949L60.8589 115.041L60.1415 115.125L59.4373 115.201L58.7467 115.267L58.0698 115.324L57.4069 115.372L56.7582 115.409L56.1237 115.436L55.5037 115.453L54.8983 115.459L54.3076 115.453L53.7318 115.436L53.1709 115.406L52.625 115.365L52.0942 115.311L51.5784 115.244L51.0778 115.164L50.5924 115.07L50.122 114.963L49.6668 114.842L49.2267 114.706L48.8016 114.556L48.3915 114.392L47.9963 114.212L47.6159 114.017L47.2503 113.807L46.8992 113.582L46.5625 113.34L46.2402 113.083L45.932 112.809L45.6378 112.52L45.3574 112.214L45.0906 111.891L44.8373 111.552L44.5971 111.196L44.37 110.824L44.1555 110.435L43.9536 110.029L43.764 109.606L43.5864 109.166L43.4205 108.71L43.2661 108.236L43.1229 107.746L42.9906 107.239L42.869 106.715L42.7577 106.175L42.6564 105.618L42.5649 105.045L42.4828 104.456L42.4099 103.851L42.3458 103.23L42.2902 102.593L42.2428 101.94L42.2033 101.273L42.1715 100.59L42.1469 99.8923L42.1293 99.1802L42.1183 98.4539L42.1137 97.7136L42.1152 96.9597L42.1225 96.1925L42.1352 95.4123L42.1531 94.6195L42.1759 93.8145L42.2034 92.9976L42.2352 92.1693L42.271 91.3299L42.3107 90.4799L42.354 89.6197L42.4006 88.7498L42.4503 87.8707L42.5028 86.9827L42.558 86.0863L42.6156 85.1822L42.6754 84.2707L42.7373 83.3523L42.801 82.4276L42.8664 81.4972L42.9333 80.5615L44.2015 64.3858L44.2813 63.4508L44.3617 62.5211L44.4429 61.5974L44.5249 60.6802L44.6078 59.7701L44.6918 58.8675L44.7769 57.9729L44.8634 57.087L44.9513 56.2102L45.0407 55.343L45.132 54.4859L45.2251 53.6395L45.3204 52.804L45.418 51.9801L45.5181 51.1681L45.6208 50.3685L45.7265 49.5818L45.8354 48.8083L45.9476 48.0484L46.0634 47.3025L46.1831 46.5711L46.3068 45.8544L46.4349 45.1527L46.5677 44.4665L46.7053 43.796L46.848 43.1416L46.9961 42.5034L47.15 41.8819L47.3097 41.2771L47.4757 40.6895L47.6482 40.119L47.8275 39.5661L48.0138 39.0309L48.2075 38.5134L48.4088 38.014L48.6179 37.5326L48.8353 37.0695L49.061 36.6248L49.2955 36.1984L49.5389 35.7905L49.7915 35.4011L50.0536 35.0303L50.3254 34.678L50.6072 34.3444L50.8992 34.0292L51.2016 33.7326L51.5147 33.4544L51.8386 33.1947L52.1737 32.9532L52.52 32.7299L52.8777 32.5248L53.2471 32.3376L53.6283 32.1682L54.0215 32.0165L54.4268 31.8823L54.8444 31.7654L55.2743 31.6656L55.7167 31.5827L56.1717 31.5164L56.6394 31.4666L57.1199 31.433L57.6131 31.4152L58.1192 31.4132L58.6383 31.4264L59.1702 31.4548L59.715 31.4979L60.2728 31.5555L60.8434 31.6273L61.4269 31.7128L62.0232 31.8118L62.6322 31.924L63.2538 32.049L63.888 32.1864L64.5346 32.3358L65.1935 32.497L65.8645 32.6696L66.5475 32.8531L67.2423 33.0473L67.9487 33.2517L68.6665 33.4659L69.3955 33.6896L70.1355 33.9224L70.8861 34.1639L71.6471 34.4138L72.4183 34.6716L73.1992 34.9371L73.9898 35.2097L74.7895 35.4892L75.598 35.7751L76.4151 36.0672L77.2403 36.3649L78.0733 36.6681L78.9136 36.9764L79.7609 37.2893L80.6147 37.6065L81.4747 37.9278L82.3403 38.2528L83.2112 38.5812L84.0868 38.9126L84.9667 39.2469L99.22 44.7626L100.095 45.1075L100.964 45.4515L101.828 45.7945L102.685 46.1365L103.536 46.4774L104.38 46.8172L105.215 47.1557L106.042 47.4931L106.86 47.8292L107.669 48.164L108.467 48.4977L109.255 48.8301L110.032 49.1614L110.798 49.4916L111.551 49.8207L112.292 50.1488L113.021 50.476L113.735 50.8024L114.436 51.128L115.123 51.4531L115.794 51.7777L116.451 52.1019L117.092 52.4259L117.717 52.7498L118.326 53.0739L118.918 53.3982L119.493 53.7229L120.05 54.0482L120.59 54.3744L121.112 54.7016L121.616 55.0299L122.101 55.3597L122.567 55.6911L123.014 56.0243L123.441 56.3596L123.849 56.6972L124.238 57.0373L124.606 57.3801L124.955 57.7258L125.283 58.0748L125.591 58.4272L125.878 58.7833L126.145 59.1433L126.391 59.5074L126.617 59.8759L126.821 60.249L127.005 60.6269L127.169 61.0099L127.311 61.3982L127.433 61.792L127.534 62.1915L127.615 62.5969L127.675 63.0084L127.715 63.4263L127.735 63.8507L127.734 64.2818L127.713 64.7198L127.673 65.1649L127.613 65.6172L127.533 66.0768L127.434 66.544L127.317 67.0189L127.18 67.5016L127.025 67.9921L126.852 68.4907L126.66 68.9974L126.452 69.5123L126.225 70.0354L125.982 70.5669L125.722 71.1068L125.446 71.655L125.153 72.2117L124.845 72.7768L124.522 73.3504L124.184 73.9324L123.831 74.5227L123.464 75.1214L123.084 75.7285L122.69 76.3437L122.283 76.967L121.864 77.5984L121.433 78.2377L120.99 78.8848L120.537 79.5395L120.072 80.2017L119.597 80.8712L119.113 81.5478L118.619 82.2314L118.116 82.9216L117.605 83.6184L117.086 84.3213L116.559 85.0303L116.025 85.7449L115.485 86.465L114.938 87.1903L114.385 87.9203L113.828 88.6548L113.265 89.3935L112.698 90.1361L112.126 90.882L102.176 103.697L101.596 104.433L101.019 105.164L100.444 105.89L99.8724 106.609L99.3038 107.322L98.7387 108.028L98.177 108.726L97.6191 109.417L97.065 110.098L96.5148 110.771L95.9688 111.434L95.4271 112.087L94.8897 112.73L94.3567 113.361L93.8282 113.982L93.3043 114.59L92.785 115.185L92.2704 115.768L91.7604 116.337L91.2551 116.893L90.7546 117.434L90.2587 117.96L89.7674 118.472L89.2808 118.967L88.7987 119.447L88.3211 119.911L87.848 120.358L87.3792 120.788L86.9146 121.2L86.4541 121.595L85.9977 121.971L85.5452 122.329L85.0965 122.669L84.6514 122.989L84.2098 123.29L83.7714 123.572L83.3363 123.833L82.9041 124.075L82.4747 124.297L82.0479 124.498L81.6236 124.678L81.2015 124.838L80.7814 124.977L80.3631 125.095L79.9464 125.191L79.5311 125.267L79.117 125.321L78.7039 125.354L78.2915 125.365L77.8796 125.355L77.468 125.324L77.0565 125.271L76.6449 125.197L76.2329 125.102L75.8203 124.985L75.407 124.847L74.9926 124.688L74.5771 124.508L74.1601 124.307L73.7414 124.086L73.321 123.844L72.8985 123.582L72.4739 123.3L72.0468 122.998L71.6173 122.676L71.1849 122.335L70.7497 121.975L70.3115 121.596L69.8701 121.199L69.4253 120.783L68.9771 120.35L68.5254 119.899L68.07 119.431L67.6108 118.946L67.1478 118.444L66.6808 117.927L66.2099 117.393L65.7349 116.845L65.2558 116.282L64.7726 115.704L64.2853 115.113L63.7938 114.508L63.2982 113.89L62.7985 113.259L62.2947 112.617L61.7869 111.963L61.2751 111.297L60.7594 110.621L60.2399 109.935L59.7167 109.239L59.1898 108.535L58.6595 107.821L58.1258 107.099L57.589 106.37L57.0491 105.634L56.5064 104.891L55.961 104.142L55.4131 103.388L54.8631 102.628L45.4365 89.4224L44.8963 88.6546L44.3601 87.8905L43.8282 87.1305L43.3011 86.3748L42.7792 85.624L42.263 84.8782L41.7528 84.1379L41.2491 83.4032L40.7524 82.6747L40.263 81.9524L39.7815 81.2368L39.3082 80.528L38.8435 79.8263L38.388 79.1319L37.9421 78.4451L37.5062 77.766L37.0808 77.0948L36.6662 76.4318L36.263 75.777L35.8715 75.1306L35.4922 74.4928L35.1254 73.8637L34.7717 73.2432L34.4314 72.6317L34.1049 72.029L33.7926 71.4353L33.4949 70.8507L33.2122 70.2751L32.9449 69.7085L32.6932 69.151L32.4577 68.6026L32.2385 68.0632L32.0361 67.5328L31.8507 67.0114L31.6827 66.4988L31.5323 65.995L31.3999 65.5L31.2858 65.0136L31.1901 64.5357L31.1131 64.0663L31.0551 63.6051L31.0163 63.152L30.9968 62.7069L30.9969 62.2696L31.0167 61.8401L31.0563 61.4179L31.1161 61.0031L31.1959 60.5955L31.296 60.1947L31.4164 59.8006L31.5573 59.4131L31.7186 59.0318L31.9004 58.6567L32.1027 58.2874L32.3255 57.9237L32.5689 57.5654L32.8328 57.2122L33.117 56.864L33.4217 56.5205L33.7466 56.1814L34.0917 55.8465L34.4568 55.5156L34.8419 55.1885L35.2467 54.8648L35.6712 54.5444L36.115 54.227L36.578 53.9125L37.06 53.6004L37.5608 53.2908L38.08 52.9832L38.6174 52.6776L39.1728 52.3736L39.7458 52.0711L40.336 51.7699L40.9433 51.4698L41.5671 51.1706L42.2073 50.8722L42.8633 50.5743L43.5348 50.2767L44.2214 49.9794L44.9227 49.6822L45.6382 49.385L46.3676 49.0875L47.1103 48.7898L47.866 48.4916L48.634 48.193L49.4141 47.8937L50.2056 47.5938L51.0081 47.2932L51.821 46.9917L52.644 46.6895L53.4763 46.3864L54.3176 46.0824L55.1673 45.7775L56.0248 45.4718L56.8896 45.1652L57.7612 44.8578L58.639 44.5496L59.5225 44.2407L60.4111 43.9312L74.875 38.994L75.767 38.6958L76.6545 38.4002L77.537 38.1076L78.4141 37.8181L79.2853 37.5322L80.1502 37.2501L81.0082 36.9722L81.8591 36.6987L82.7023 36.43L83.5375 36.1664L84.3643 35.9083L85.1823 35.656L85.9911 35.4099L86.7904 35.1703L87.5799 34.9376L88.3592 34.7121L89.1279 34.4942L89.8859 34.2843L90.6328 34.0827L91.3684 33.8899L92.0924 33.7061L92.8046 33.5318L93.5047 33.3673L94.1926 33.213L94.868 33.0692L95.5309 32.9363L96.1809 32.8147L96.818 32.7048L97.4421 32.6068L98.0531 32.5212L98.6507 32.4482L99.2351 32.3882L99.806 32.3416L100.364 32.3086L100.908 32.2896L101.438 32.2849L101.955 32.2948L102.459 32.3196L102.949 32.3595L103.425 32.4149L103.888 32.486L104.338 32.573L104.775 32.6762L105.198 32.7958L105.609 32.932L106.006 33.085L106.391 33.2551L106.763 33.4424L107.123 33.647L107.47 33.8691L107.805 34.1089L108.129 34.3665L108.44 34.6419L108.74 34.9352L109.028 35.2466L109.306 35.5761L109.572 35.9237L109.828 36.2894L110.073 36.6733L110.308 37.0754L110.534 37.4956L110.749 37.9339L110.956 38.3902L111.153 38.8645L111.341 39.3567L111.521 39.8666L111.692 40.3942L111.856 40.9392L112.011 41.5016L112.16 42.0812L112.301 42.6777L112.435 43.291L112.563 43.9209L112.684 44.567L112.8 45.2292L112.909 45.9071L113.013 46.6005L113.112 47.3091L113.207 48.0325L113.296 48.7705L113.381 49.5226L113.462 50.2885L113.539 51.0679L113.613 51.8603L113.683 52.6653L113.75 53.4825L113.814 54.3115L113.875 55.1519L113.933 56.0031L113.99 56.8648L114.044 57.7364L114.096 58.6175L114.147 59.5076L114.196 60.4061L114.243 61.3125L114.289 62.2265L114.334 63.1473L114.378 64.0745L114.421 65.0075L114.463 65.9458L115.079 82.1592L115.108 83.096L115.135 84.0275L115.162 84.953L115.186 85.872L115.209 86.784L115.23 87.6886L115.249 88.5851L115.265 89.4731L115.279 90.3521L115.29 91.2217L115.299 92.0813L115.304 92.9305L115.305 93.7689L115.303 94.5961L115.297 95.4115L115.287 96.2149L115.272 97.0057L115.253 97.7837L115.228 98.5485L115.199 99.2997L115.164 100.037L115.123 100.76L115.075 101.469L115.022 102.162L114.961 102.841L114.894 103.504L114.819 104.151L114.737 104.783L114.647 105.399L114.548 105.998L114.441 106.581L114.325 107.147L114.2 107.697L114.066 108.229L113.922 108.745L113.767 109.243L113.603 109.725L113.428 110.189L113.242 110.636L113.045 111.065L112.837 111.477L112.617 111.872L112.385 112.25L112.142 112.61L111.885 112.953L111.617 113.279L111.335 113.588L111.041 113.88L110.733 114.155L110.412 114.413L110.077 114.654L109.729 114.88L109.367 115.088L108.991 115.281L108.601 115.458L108.196 115.619L107.778 115.765L107.345 115.895L106.897 116.01L106.435 116.111L105.959 116.197L105.468 116.268L104.962 116.326L104.442 116.37L103.907 116.401L103.357 116.418L102.793 116.423L102.215 116.415L101.622 116.395L101.015 116.364L100.394 116.32L99.7593 116.266L99.1104 116.201L98.4478 116.125L97.7716 116.039L97.0821 115.944L96.3795 115.838L95.664 115.724L94.9358 115.601L94.1952 115.47L93.4425 115.331L92.6779 115.184L91.9018 115.029L91.1144 114.868L90.3161 114.7L89.5073 114.526L88.6882 114.345L87.8593 114.159L87.0209 113.968L86.1735 113.772L85.3174 113.571L84.4531 113.365L83.5809 113.156L82.7014 112.943L81.8151 112.726L80.9222 112.506L80.0234 112.283L79.1191 112.057L78.2099 111.829L62.4999 107.773L61.5923 107.532L60.69 107.291L59.7936 107.051L58.9036 106.811L58.0207 106.571L57.1454 106.332L56.2781 106.092L55.4195 105.853L54.5701 105.615L53.7303 105.376L52.9007 105.137L52.0818 104.898L51.274 104.66L50.478 104.42L49.6941 104.181L48.9228 103.941L48.1646 103.7L47.42 103.459L46.6892 103.217L45.9729 102.973L45.2714 102.729L44.585 102.482L43.9142 102.235L43.2593 101.985L42.6207 101.733L41.9988 101.479L41.3938 101.223L40.8061 100.964L40.236 100.702L39.6837 100.437L39.1495 100.169L38.6337 99.8965L38.1364 99.6206L37.658 99.3406L37.1986 99.0562L36.7583 98.7673L36.3374 98.4735L35.936 98.1746L35.5543 97.8704L35.1922 97.5606L34.85 97.245L34.5277 96.9233L34.2254 96.5953L33.9431 96.2607L33.6808 95.9193L33.4385 95.5709L33.2163 95.2153L33.0141 94.8522L32.8319 94.4813L32.6695 94.1026L32.527 93.7157L32.4042 93.3205L32.301 92.9168L32.2174 92.5045L32.153 92.0832L32.1079 91.6529L32.0818 91.2134L32.0745 90.7645L32.0858 90.3062L32.1155 89.8382L32.1635 89.3605L32.2293 88.873L32.3128 88.3755L32.4138 87.868L32.5318 87.3504L32.6667 86.8227L32.8181 86.2847L32.9858 85.7366L33.1693 85.1781L33.3683 84.6095L33.5826 84.0305L33.8116 83.4414L34.0552 82.8421L34.3129 82.2326L34.5842 81.613L34.869 80.9835L35.1666 80.344L35.4769 79.6947L35.7992 79.0358L36.1334 78.3674L36.4788 77.6895L36.8352 77.0025L37.202 76.3064L37.5789 75.6014L37.9655 74.8879L38.3613 74.1659L38.766 73.4358L39.179 72.6978L39.6 71.9522L40.0285 71.1992L40.4642 70.4391L40.9065 69.6723L41.3552 68.8991L41.8097 68.1198L42.2698 67.3348L42.7349 66.5444L43.2047 65.7489L43.6787 64.9489L44.1567 64.1447L44.6382 63.3366L52.544 50.2569L53.0358 49.4548L53.5258 48.6576L54.0138 47.8657L54.4998 47.0798L54.9836 46.3003L55.465 45.5278L55.9438 44.7628L56.42 44.0059L56.8934 43.2574L57.364 42.518L57.8316 41.7882L58.2962 41.0685L58.7578 40.3593L59.2163 39.6612L59.6717 38.9748L60.1239 38.3003L60.573 37.6384L61.0189 36.9895L61.4617 36.3541L61.9015 35.7326L62.3381 35.1255L62.7718 34.5332L63.2026 33.9561L63.6305 33.3947L64.0557 32.8493L64.4783 32.3204L64.8982 31.8083L65.3158 31.3134L65.731 30.836L66.1441 30.3765L66.5552 29.9352L66.9644 29.5124L67.3719 29.1085L67.7779 28.7236L68.1825 28.3581L68.5859 28.0122L68.9884 27.6861L69.3901 27.3801L69.7912 27.0944L70.1918 26.8291L70.5924 26.5844L70.9929 26.3605L71.3937 26.1575L71.795 25.9755L72.1969 25.8146L72.5998 25.6749L73.0038 25.5565L73.4091 25.4594L73.816 25.3836L74.2247 25.3291L74.6354 25.2959L75.0484 25.2841L75.4638 25.2935L75.8819 25.3241L76.3028 25.3758L76.7268 25.4485L77.1542 25.5421L77.585 25.6565L78.0195 25.7916L78.4578 25.947L78.9002 26.1228L79.3468 26.3186L79.7979 26.5343L80.2534 26.7697L80.7137 27.0244L81.1788 27.2982L81.649 27.5909L82.1242 27.9022L82.6046 28.2318L83.0904 28.5792L83.5816 28.9443L84.0783 29.3267L84.5806 29.726L85.0886 30.1419L85.6023 30.5739L86.1217 31.0217L86.6468 31.4849L87.1778 31.9631L87.7145 32.4558L88.257 32.9627L88.8053 33.4833L89.3592 34.0171L89.9189 34.5637L90.4841 35.1227L91.0549 35.6936L91.6311 36.2759L92.2126 36.8692L92.7993 37.4729L93.3911 38.0866L93.9879 38.7098L94.5894 39.3421L95.1955 39.9829L95.806 40.6317L96.4208 41.2881L97.0395 41.9516L97.6621 42.6216L98.2881 43.2977L98.9175 43.9795L99.5499 44.6663L100.185 45.3578L111.079 57.3819L111.704 58.0811L112.324 58.777L112.939 59.4693L113.549 60.1577L114.154 60.842L114.751 61.5218L115.343 62.1968L115.926 62.8668L116.503 63.5316L117.071 64.1909L117.63 64.8445L118.18 65.4922L118.721 66.1339L119.252 66.7693L119.772 67.3983L120.281 68.0207L120.779 68.6364L121.265 69.2453L121.739 69.8473L122.2 70.4422L122.648 71.0301L123.082 71.6108L123.502 72.1844L123.908 72.7507L124.299 73.3097L124.675 73.8615L125.035 74.4061L125.379 74.9433L125.706 75.4734L126.017 75.9963L126.311 76.5121L126.587 77.0208L126.846 77.5226L127.087 78.0175L127.309 78.5056L127.512 78.987L127.697 79.4618L127.863 79.9303L128.009 80.3924L128.135 80.8484L128.242 81.2984L128.329 81.7426L128.395 82.1812L128.441 82.6143L128.467 83.0421L128.472 83.4649L128.456 83.8827L128.42 84.2959L128.362 84.7046L128.283 85.109L128.184 85.5094L128.063 85.906L127.921 86.2989L127.759 86.6885L127.575 87.0749L127.37 87.4584L127.144 87.8392L126.898 88.2176L126.63 88.5937L126.342 88.9677L126.034 89.34L125.705 89.7107L125.356 90.0801L124.987 90.4483L124.598 90.8157L124.19 91.1823L123.762 91.5484L123.316 91.9142L122.85 92.2799L122.366 92.6457L121.864 93.0117L121.343 93.3782L120.805 93.7453L120.25 94.1132L119.678 94.482L119.09 94.8518L118.485 95.2229L117.864 95.5952L117.229 95.969L116.578 96.3444L115.913 96.7214L115.233 97.1001L114.54 97.4806L113.834 97.863L113.116 98.2473L112.385 98.6335L111.642 99.0217L110.888 99.412L110.124 99.8042L109.349 100.198L108.565 100.595L107.771 100.993L106.969 101.393L106.159 101.795L105.341 102.198L104.516 102.603L103.685 103.01L102.847 103.419L102.004 103.828L87.363 110.82L86.5125 111.219L85.6663 111.615L84.8248 112.007L83.9884 112.395L83.1576 112.78L82.3327 113.159L81.5141 113.534L80.7023 113.903L79.8976 114.266L79.1003 114.624L78.3109 114.974L77.5296 115.318L76.7567 115.655L75.9926 115.984L75.2376 116.305L74.4919 116.618L73.7557 116.921L73.0295 117.216L72.3133 117.5L71.6074 117.775L70.912 118.039L70.2273 118.293L69.5534 118.535L68.8906 118.765L68.2389 118.984L67.5985 119.19L66.9695 119.383L66.3521 119.563L65.7461 119.73L65.1519 119.883L64.5694 120.022L63.9986 120.146L63.4395 120.255L62.8922 120.349L62.3567 120.428L61.833 120.49L61.321 120.537L60.8206 120.567L60.3318 120.58L59.8546 120.577L59.3888 120.556L58.9344 120.518L58.4912 120.462L58.0592 120.389L57.6381 120.297L57.2279 120.187L56.8284 120.059L56.4394 119.912L56.0607 119.746L55.6922 119.562L55.3337 119.358L54.985 119.135L54.6459 118.894L54.3161 118.633L53.9954 118.353L53.6837 118.054L53.3806 117.735L53.0859 117.397L52.7995 117.04L52.5209 116.664L52.2501 116.268L51.9867 115.854L51.7304 115.42L51.4811 114.968L51.2384 114.496L51.0021 114.007L50.7719 113.498L50.5476 112.972L50.3288 112.427L50.1154 111.865L49.9071 111.285L49.7036 110.688L49.5046 110.073L49.31 109.442L49.1194 108.794L48.9326 108.129L48.7493 107.449L48.5694 106.753L48.3926 106.042L48.2187 105.317L48.0475 104.576L47.8787 103.822L47.7121 103.054L47.5476 102.272L47.385 101.478L47.224 100.671L47.0646 99.8526L46.9065 99.0226L46.7496 98.1815L46.5938 97.3299L46.439 96.4682L46.2849 95.5971L46.1315 94.717L45.9788 93.8283L45.8265 92.9318L45.6747 92.0278L45.5233 91.1169L45.3722 90.1997L45.2214 89.2768L45.0708 88.3486L42.7188 73.2473L42.5798 72.3165L42.4426 71.3905L42.3074 70.4698L42.1743 69.5549L42.0437 68.6464L41.9157 67.7448L41.7906 66.8505L41.6686 65.964L41.5499 65.0858L41.4349 64.2163L41.3237 63.356L41.2168 62.5054L41.1142 61.6647L41.0164 60.8346L40.9236 60.0152L40.8362 59.2072L40.7543 58.4107L40.6784 57.6261L40.6088 56.8539L40.5457 56.0943L40.4895 55.3477L40.4405 54.6143L40.3991 53.8945L40.3655 53.1884L40.3401 52.4964L40.3232 51.8187L40.3152 51.1554L40.3163 50.5069L40.3269 49.8734L40.3473 49.2548L40.3779 48.6515L40.4189 48.0636L40.4707 47.4912L40.5335 46.9344L40.6078 46.3933L40.6937 45.8679L40.7916 45.3584L40.9018 44.8648L41.0246 44.387L41.1602 43.9252L41.3088 43.4793L41.4708 43.0492L41.6465 42.6351L41.836 42.2367L42.0395 41.854L42.2574 41.487L42.4898 41.1356L42.7369 40.7996L42.9988 40.479L43.2759 40.1736L43.5682 39.8832L43.8759 39.6077L44.1992 39.3469L44.5381 39.1007L44.8927 38.8688L45.2632 38.651L45.6497 38.4471L46.0522 38.257L46.4708 38.0802L46.9055 37.9167L47.3563 37.7661L47.8232 37.6282L48.3063 37.5027L48.8055 37.3894L49.3208 37.2879L49.8521 37.1979L50.3993 37.1193L50.9624 37.0515L51.5412 36.9945L52.1357 36.9477L52.7456 36.911L53.3709 36.884L54.0114 36.8664L54.6668 36.8579L55.337 36.8581L56.0218 36.8667L56.7209 36.8835L57.4341 36.908L58.1611 36.9399L58.9016 36.9791L59.6554 37.025L60.422 37.0774L61.2013 37.136L61.9928 37.2006L62.7962 37.2706L63.6112 37.346L64.4372 37.4264L65.2741 37.5114L66.1213 37.6008L66.9783 37.6944L67.8449 37.7919L68.7206 37.8929L69.6048 37.9973L70.4971 38.1048L71.3971 38.2151L72.3042 38.328L73.218 38.4434L74.1379 38.561L75.0635 38.6805L75.9942 38.8019L92.0685 41.0096L92.9969 41.1436L93.9198 41.2779L94.8366 41.4127L95.7469 41.548L96.65 41.6837L97.5455 41.8201L98.4327 41.9572L99.3113 42.0951L100.181 42.2339L101.04 42.3738L101.89 42.5148L102.728 42.6571L103.556 42.801L104.371 42.9464L105.175 43.0937L105.966 43.243L106.744 43.3945L107.509 43.5483L108.26 43.7048L108.996 43.864L109.718 44.0263L110.425 44.1919L111.117 44.3609L111.792 44.5337L112.452 44.7104L113.096 44.8913L113.723 45.0767L114.333 45.2669L114.926 45.462L115.501 45.6624L116.059 45.8683L116.599 46.0799L117.121 46.2976L117.624 46.5217L118.109 46.7522L118.576 46.9897L119.024 47.2342L119.453 47.4862L119.863 47.7457L120.255 48.0132L120.627 48.2888L120.98 48.5728L121.314 48.8654L121.629 49.167L121.925 49.4776L122.202 49.7977L122.46 50.1273L122.698 50.4667L122.918 50.8161L123.119 51.1757L123.302 51.5458L123.465 51.9264L123.611 52.3178L123.737 52.7202L123.846 53.1336L123.937 53.5583L124.01 53.9944L124.065 54.4419L124.104 54.9011L124.125 55.372L124.129 55.8546L124.116 56.3492L124.087 56.8557L124.042 57.3741L123.982 57.9046L123.906 58.4472L123.814 59.0017L123.708 59.5683L123.587 60.147L123.453 60.7376L123.304 61.3401L123.142 61.9545L122.967 62.5807L122.779 63.2186L122.578 63.868L122.366 64.5289L122.142 65.2012L121.907 65.8845L121.661 66.5788L121.404 67.284L121.137 67.9997L120.861 68.7258L120.576 69.462L120.281 70.2081L119.978 70.9638L119.667 71.7289L119.348 72.5031L119.022 73.286L118.689 74.0773L118.349 74.8767L118.003 75.6839L117.652 76.4985L117.295 77.3201L116.933 78.1484L116.566 78.9829L116.195 79.8232L115.82 80.6689L115.441 81.5197L115.059 82.375L114.674 83.2344L108.338 97.1422L107.943 97.9949L107.549 98.8425L107.156 99.6843L106.765 100.52L106.375 101.349L105.987 102.17L105.601 102.984L105.216 103.789L104.833 104.585L104.452 105.372L104.073 106.149L103.695 106.915L103.319 107.671L102.946 108.415L102.573 109.147L102.203 109.866L101.834 110.573L101.467 111.266L101.101 111.946L100.737 112.611L100.374 113.261L100.012 113.896L99.6514 114.516L99.2918 115.12L98.9329 115.707L98.5748 116.278L98.2173 116.831L97.8601 117.367L97.5031 117.886L97.1461 118.386L96.789 118.868L96.4315 119.331L96.0736 119.775L95.7148 120.201L95.3551 120.606L94.9943 120.992L94.6321 121.358L94.2683 121.704L93.9027 122.03L93.535 122.336L93.1651 122.621L92.7926 122.885L92.4175 123.128L92.0394 123.351L91.6581 123.553L91.2734 123.734L90.8851 123.893L90.4929 124.032L90.0966 124.15L89.696 124.247L89.2909 124.323L88.881 124.378L88.4662 124.412L88.0462 124.426L87.6209 124.419L87.19 124.391L86.7534 124.343L86.3109 124.275L85.8623 124.187L85.4075 124.079L84.9462 123.951L84.4784 123.804L84.0039 123.638L83.5225 123.453L83.0342 123.25L82.5388 123.027L82.0363 122.787L81.5265 122.529L81.0094 122.254L80.485 121.961L79.953 121.652L79.4136 121.326L78.8666 120.984L78.3121 120.627L77.7501 120.254L77.1806 119.866L76.6035 119.464L76.019 119.048L75.427 118.617L74.8277 118.174L74.2211 117.718L73.6073 117.249L72.9864 116.768L72.3585 116.276L71.7238 115.773L71.0824 115.259L70.4345 114.735L69.7803 114.202L69.1199 113.659L68.4535 113.107L67.7814 112.547L67.1038 111.979L66.4209 111.404L65.733 110.822L65.0404 110.234L64.3433 109.639L63.6421 109.039L62.937 108.434L62.2284 107.824L61.5166 107.21L50.0076 97.1542L49.3025 96.5304L48.6018 95.909L47.9061 95.2905L47.2158 94.6749L46.5313 94.0627L45.8533 93.4541L45.1821 92.8492L44.5183 92.2482L43.8624 91.6515L43.2148 91.0591L42.5761 90.4712L41.9467 89.888L41.3271 89.3096L40.7179 88.7362L40.1194 88.1679L39.5322 87.6047L38.9568 87.0469L38.3936 86.4943L37.843 85.9472L37.3055 85.4055L36.7816 84.8693L36.2718 84.3386L35.7763 83.8134L35.2958 83.2938L34.8305 82.7796L34.3808 82.271L33.9473 81.7677L33.5302 81.2699L33.13 80.7773L32.7469 80.2901L32.3813 79.8079L32.0337 79.3309L31.7042 78.8588L31.3932 78.3915L31.101 77.9289L30.8279 77.471L30.5741 77.0174L30.3399 76.5682L30.1255 76.123L29.9312 75.6818L29.7571 75.2444L29.6035 74.8106L29.4704 74.3802L29.3581 73.953L29.2667 73.5289L29.1963 73.1075L29.147 72.6888L29.119 72.2725L29.1122 71.8583L29.1267 71.4461L29.1625 71.0357L29.2198 70.6267L29.2983 70.2191L29.3983 69.8126L29.5195 69.4069L29.662 69.0019L29.8256 68.5973L30.0103 68.1929L30.216 67.7884L30.4425 67.3838L30.6896 66.9787L30.9574 66.573L31.2454 66.1664L31.5537 65.7588L31.8818 65.3499L32.2297 64.9396L32.5971 64.5276L32.9836 64.1139L33.3891 63.6983L33.8132 63.2805L34.2557 62.8605L34.7162 62.438L35.1943 62.013L35.6898 61.5854L36.2023 61.1549L36.7313 60.7216L37.2765 60.2852L37.8376 59.8458L38.4141 59.4032L39.0055 58.9574L39.6115 58.5083L40.2316 58.0558L40.8653 57.6001L41.5123 57.1409L42.172 56.6784L42.8439 56.2125L43.5276 55.7433L44.2226 55.2708L44.9284 54.7949L45.6444 54.3159L46.3703 53.8337L47.1054 53.3485L47.8493 52.8603L48.6014 52.3692L49.3613 51.8754L50.1283 51.379L50.902 50.8802L51.6819 50.3791L52.4675 49.8758L53.2581 49.3707L66.9904 40.7288L67.788 40.2345L68.5816 39.744L69.3709 39.2576L70.1554 38.7758L70.9349 38.2989L71.7089 37.8274L72.4771 37.3617L73.2392 36.9022L73.9948 36.4493L74.7436 36.0034L75.4854 35.5649L76.2199 35.1344L76.9467 34.7121L77.6656 34.2986L78.3765 33.8942L79.079 33.4995L79.7729 33.1147L80.4581 32.7404L81.1344 32.3769L81.8016 32.0247L82.4596 31.6842L83.1081 31.3558L83.7472 31.0399L84.3766 30.7369L84.9963 30.4473L85.6063 30.1713L86.2063 29.9094L86.7965 29.662L87.3767 29.4294L87.947 29.212L88.5073 29.0102L89.0576 28.8242L89.5979 28.6545L90.1284 28.5013L90.6489 28.3649L91.1597 28.2457L91.6607 28.144L92.152 28.0599L92.6338 27.9938L93.1061 27.946L93.569 27.9166L94.0227 27.9058L94.4674 27.914L94.903 27.9413L95.33 27.9878L95.7483 28.0538L96.1581 28.1393L96.5597 28.2445L96.9533 28.3696L97.3389 28.5146L97.7169 28.6795L98.0875 28.8646L98.4508 29.0697L98.8071 29.295L99.1566 29.5405L99.4996 29.8062L99.8362 30.0919L100.167 30.3978L100.491 30.7238L100.811 31.0697L101.124 31.4355L101.433 31.8211L101.737 32.2263L102.036 32.6511L102.331 33.0952L102.621 33.5585L102.908 34.0407L103.191 34.5418L103.471 35.0614L103.748 35.5993L104.021 36.1552L104.292 36.7289L104.561 37.3201L104.827 37.9285L105.091 38.5537L105.353 39.1954L105.614 39.8533L105.873 40.5269L106.131 41.216L106.387 41.9201L106.643 42.6388L106.898 43.3717L107.153 44.1184L107.407 44.8783L107.661 45.6512L107.914 46.4365L108.167 47.2337L108.421 48.0423L108.674 48.8619L108.928 49.692L109.182 50.532L109.436 51.3814L109.691 52.2397L109.946 53.1064L110.201 53.981L110.457 54.8628L110.713 55.7514L110.97 56.6462L111.227 57.5466L111.484 58.4521L115.571 73.1788L115.817 74.0862L116.06 74.989L116.3 75.8865L116.538 76.7785L116.773 77.6642L117.004 78.5434L117.231 79.4155L117.454 80.2801L117.673 81.1368L117.887 81.9852L118.096 82.8247L118.3 83.6551L118.498 84.476L118.69 85.287L118.876 86.0876L119.055 86.8777L119.227 87.6568L119.392 88.4247L119.549 89.181L119.698 89.9254L119.839 90.6578L119.971 91.3777L120.093 92.0851L120.206 92.7796L120.31 93.461L120.403 94.1292L120.485 94.784L120.557 95.4252L120.618 96.0527L120.667 96.6663L120.704 97.2659L120.728 97.8514L120.74 98.4228L120.74 98.98L120.726 99.5229L120.698 100.051L120.657 100.566L120.602 101.066L120.532 101.551L120.448 102.022L120.349 102.479L120.234 102.922L120.104 103.351L119.959 103.765L119.798 104.166L119.62 104.553L119.427 104.926L119.216 105.285L118.99 105.631L118.746 105.963L118.486 106.283L118.208 106.589L117.914 106.883L117.602 107.164L117.273 107.433L116.926 107.689L116.562 107.934L116.18 108.167L115.781 108.389L115.364 108.599L114.93 108.799L114.479 108.987L114.009 109.166L113.523 109.334L113.019 109.493L112.498 109.642L111.96 109.781L111.404 109.912L110.832 110.034L110.244 110.147L109.638 110.253L109.017 110.351L108.379 110.441L107.726 110.524L107.056 110.6L106.372 110.669L105.672 110.732L104.958 110.79L104.229 110.841L103.486 110.887L102.729 110.928L101.958 110.963L101.174 110.995L100.378 111.022L99.5689 111.044L98.7481 111.063L97.9157 111.079L97.0722 111.091L96.218 111.099L95.3536 111.105L94.4795 111.109L93.596 111.109L92.7037 111.108L91.8031 111.104L90.8947 111.099L89.979 111.091L89.0566 111.083L88.1279 111.072L87.1934 111.061L86.2538 111.048L70.0323 110.719L69.0958 110.693L68.1649 110.667L67.24 110.639L66.3217 110.61L65.4106 110.58L64.5071 110.548L63.6117 110.514L62.7251 110.479L61.8476 110.441L60.9798 110.402L60.1221 110.36L59.275 110.315L58.439 110.268L57.6144 110.217L56.8018 110.163L56.0016 110.106L55.2141 110.045L54.4397 109.98L53.6789 109.911L52.932 109.837L52.1994 109.759L51.4813 109.675L50.7781 109.587L50.0902 109.492L49.4178 109.392L48.7611 109.286L48.1206 109.173L47.4963 109.053L46.8885 108.927L46.2975 108.793L45.7234 108.651L45.1664 108.502L44.6266 108.344L44.1043 108.178L43.5996 108.004L43.1125 107.82L42.6431 107.627L42.1916 107.424L41.758 107.212L41.3423 106.99L40.9445 106.757L40.5648 106.513L40.203 106.259L39.8591 105.993L39.5332 105.717L39.2251 105.428L38.9348 105.128L38.6622 104.816L38.4072 104.492L38.1697 104.155L37.9496 103.806L37.7466 103.444L37.5607 103.069L37.3917 102.682L37.2394 102.281L37.1036 101.866L36.9841 101.439L36.8806 100.998L36.793 100.543L36.721 100.075L36.6642 99.5926L36.6226 99.0968L36.5957 98.5874L36.5834 98.0641L36.5852 97.5271L36.6009 96.9763L36.6302 96.4118L36.6728 95.8337L36.7283 95.2419L36.7965 94.6366L36.8769 94.0179L36.9692 93.3859L37.0731 92.7406L37.1882 92.0823L37.3142 91.4111L37.4508 90.7272L37.5974 90.0308L37.7539 89.322L37.9198 88.6011L38.0948 87.8683L38.2784 87.1239L38.4704 86.3681L38.6704 85.6013L38.8779 84.8237L39.0927 84.0355L39.3144 83.2373L39.5426 82.4292L39.777 81.6116L40.0173 80.785L40.263 79.9496L40.5139 79.1059L40.7697 78.2543L41.0299 77.3951L41.2943 76.5289L41.5626 75.656L41.8344 74.7769L42.1095 73.8921L42.3876 73.002L42.6684 72.1071L47.6323 56.6598L47.9256 55.7682L48.2183 54.8819L48.5103 54.0016L48.8016 53.1277L49.0923 52.2609L49.3822 51.4017L49.6713 50.5506L49.9598 49.7081L50.2475 48.8749L50.5346 48.0513L50.8211 47.2379L51.107 46.4353L51.3924 45.6439L51.6773 44.8642L51.962 44.0967L52.2464 43.3419L52.5307 42.6002L52.8149 41.8721L53.0994 41.158L53.3841 40.4583L53.6692 39.7736L53.9548 39.1041L54.2413 38.4503L54.5286 37.8125L54.8171 37.1912L55.1069 36.5866L55.3981 35.9992L55.6911 35.4291L55.9859 34.8768L56.2829 34.3425L56.5821 33.8266L56.884 33.3291L57.1886 32.8505L57.4963 32.3909L57.8072 31.9506L58.1216 31.5297L58.4397 31.1284L58.7618 30.7469L59.0881 30.3853L59.4188 30.0437L59.7542 29.7223L60.0946 29.4211L60.4401 29.1402L60.791 28.8797L61.1476 28.6396L61.51 28.4199L61.8785 28.2206L62.2534 28.0417L62.6348 27.8832L63.023 27.7451L63.4181 27.6271L63.8205 27.5294L64.2302 27.4517L64.6474 27.394L65.0724 27.356L65.5054 27.3378L65.9464 27.339L66.3957 27.3596L66.8534 27.3993L67.3196 27.458L67.7945 27.5353L68.2782 27.6311L68.7708 27.7451L69.2724 27.877L69.7831 28.0265L70.303 28.1935L70.832 28.3775L71.3704 28.5782L71.918 28.7954L72.475 29.0286L73.0414 29.2776L73.6171 29.5419L74.2021 29.8213L74.7964 30.1153L75.4 30.4235L76.0128 30.7456L76.6347 31.0812L77.2656 31.4298L77.9055 31.7911L78.5542 32.1646L79.2116 32.55L79.8776 32.9467L80.5519 33.3544L81.2345 33.7726L81.9251 34.2009L82.6235 34.6389L83.3295 35.0862L84.0429 35.5422L84.7635 36.0066L85.4909 36.4789L86.225 36.9586L86.9653 37.4455L87.7117 37.9389L88.4637 38.4386L89.2212 38.944L89.9836 39.4547L90.7508 39.9704L91.5223 40.4906L92.2978 41.0149L93.0768 41.5429L105.674 50.1967L106.446 50.734L107.213 51.2694L107.974 51.8024L108.73 52.3331L109.48 52.8611L110.222 53.3863L110.957 53.9085L111.685 54.4276L112.403 54.9434L113.113 55.4559L113.814 55.9648L114.504 56.4702L115.185 56.9719L115.854 57.4699L116.512 57.964L117.157 58.4543L117.791 58.9408L118.412 59.4233L119.019 59.902L119.613 60.3768L120.192 60.8477L120.757 61.3147L121.306 61.778L121.84 62.2375L122.359 62.6933L122.861 63.1455L123.346 63.5943L123.814 64.0396L124.265 64.4816L124.698 64.9204L125.113 65.3562L125.51 65.789L125.887 66.219L126.246 66.6465L126.586 67.0714L126.906 67.4941L127.206 67.9147L127.486 68.3333L127.746 68.7501L127.986 69.1655L128.205 69.5794L128.404 69.9922L128.581 70.4041L128.737 70.8152L128.873 71.2257L128.987 71.636L129.08 72.0462L129.151 72.4565L129.201 72.8672L129.23 73.2784L129.237 73.6905L129.223 74.1035L129.187 74.5178L129.131 74.9335L129.052 75.3509L128.953 75.7702L128.833 76.1915L128.692 76.6152L128.53 77.0413L128.347 77.4701L128.144 77.9018L127.921 78.3366L127.678 78.7746L127.414 79.2161L127.131 79.6611L126.829 80.1099L126.508 80.5625L126.168 81.0192L125.809 81.4801L125.432 81.9452L125.038 82.4148L124.626 82.8889L124.196 83.3675L123.75 83.8509L123.287 84.339L122.809 84.8319L122.314 85.3297L121.805 85.8324L121.28 86.3401L120.741 86.8526L120.188 87.3701L119.622 87.8926L119.043 88.4199L118.451 88.9522L117.846 89.4892L117.231 90.031L116.603 90.5775L115.966 91.1285L115.318 91.684L114.66 92.2439L113.993 92.808L113.317 93.3763L112.633 93.9484L111.942 94.5243L111.243 95.1037L110.537 95.6865L109.825 96.2725L109.107 96.8614L108.384 97.453L107.657 98.0471L95.0189 108.223L94.2849 108.805L93.5544 109.384L92.8279 109.957L92.1055 110.526L91.3877 111.088L90.6748 111.645L89.967 112.195L89.2647 112.739L88.5681 113.275L87.8774 113.803L87.193 114.322L86.5149 114.833L85.8435 115.335L85.179 115.827L84.5215 116.309L83.8712 116.78L83.2283 117.24L82.5928 117.689L81.965 118.126L81.345 118.55L80.7328 118.962L80.1285 119.36L79.5322 119.745L78.944 120.116L78.364 120.472L77.792 120.814L77.2282 121.14L76.6726 121.451L76.1251 121.746L75.5858 122.024L75.0545 122.286L74.5313 122.531L74.0161 122.758L73.5088 122.968L73.0093 123.16L72.5176 123.334L72.0335 123.489L71.5569 123.625L71.0877 123.742L70.6258 123.84L70.171 123.919L69.7231 123.978L69.282 124.017L68.8476 124.036L68.4196 124.035L67.9978 124.013L67.5822 123.971L67.1723 123.909L66.7682 123.825L66.3695 123.722L65.9761 123.597L65.5876 123.452L65.204 123.285L64.825 123.098L64.4503 122.89L64.0797 122.662L63.713 122.412L63.35 122.142L62.9904 121.852L62.634 121.54L62.2805 121.209L61.9298 120.857L61.5816 120.486L61.2356 120.094L60.8917 119.683L60.5496 119.252L60.2091 118.802L59.87 118.333L59.5321 117.845L59.1952 117.339L58.859 116.815L58.5234 116.272L58.1883 115.712L57.8533 115.135L57.5184 114.541L57.1834 113.93L56.8481 113.304L56.5124 112.661L56.1761 112.003L55.8392 111.331L55.5014 110.643L55.1628 109.942L54.8231 109.227L54.4823 108.498L54.1404 107.757L53.7972 107.004L53.4526 106.239L53.1068 105.463L52.7596 104.676L52.4109 103.879L52.0609 103.072L51.7095 102.256L51.3566 101.431L51.0025 100.598L50.647 99.757L50.2903 98.9094L49.9323 98.0551L49.5733 97.1949L49.2132 96.3292L43.0858 81.3055L42.7371 80.4337L42.3914 79.5663L42.049 78.7039L41.7103 77.8468L41.3755 76.9956L41.045 76.1507L40.7191 75.3123L40.3982 74.4811L40.0826 73.6573L39.7728 72.8413L39.469 72.0336L39.1716 71.2344L38.8811 70.4441L38.5977 69.663L38.3219 68.8915L38.054 68.1298L37.7945 67.3782L37.5437 66.637L37.3019 65.9065L37.0697 65.1868L36.8473 64.4782L36.6351 63.781L36.4335 63.0953L36.243 62.4212L36.0638 61.7591L35.8964 61.1089L35.7411 60.4708L35.5982 59.845L35.4682 59.2316L35.3514 58.6306L35.2481 58.0422L35.1587 57.4663L35.0834 56.903L35.0227 56.3523L34.9769 55.8143L34.9461 55.289L34.9309 54.7763L34.9313 54.2762L34.9478 53.7886L34.9805 53.3135L35.0297 52.8509L35.0957 52.4006L35.1787 51.9625L35.279 51.5366L35.3966 51.1226L35.5319 50.7206L35.6849 50.3303L35.8559 49.9515L36.045 49.5842L36.2523 49.2281L36.478 48.8831L36.7222 48.5489L36.9849 48.2253L37.2661 47.9122L37.5661 47.6093L37.8848 47.3164L38.2222 47.0332L38.5784 46.7596L38.9533 46.4952L39.3469 46.2398L39.7592 45.9932L40.1901 45.7551L40.6395 45.5253L41.1073 45.3034L41.5935 45.0892L42.0978 44.8824L42.6202 44.6828L43.1604 44.4901L43.7184 44.304L44.2939 44.1243L44.8866 43.9505L45.4964 43.7826L46.123 43.6202L46.7662 43.4631L47.4256 43.3109L48.1011 43.1635L48.7922 43.0205L49.4986 42.8818L50.22 42.747L50.9561 42.6159L51.7065 42.4883L52.4707 42.3639L53.2485 42.2426L54.0394 42.124L54.8429 42.0081L55.6587 41.8945L56.4862 41.7831L57.3251 41.6738L58.1749 41.5662L59.0351 41.4603L59.9051 41.356L60.7846 41.2529L61.6729 41.1511L62.5697 41.0504L63.4743 40.9506L64.3862 40.8517L65.305 40.7535L66.2299 40.6561L67.1606 40.5592L68.0965 40.4629L83.309 38.994L84.2459 38.9095L85.1779 38.8265L86.1044 38.7452L87.0248 38.6657L87.9388 38.5884L88.8456 38.5132L89.745 38.4405L90.6363 38.3705L91.5192 38.3034L92.393 38.2394L93.2574 38.1788L94.1119 38.1218L94.9561 38.0687L95.7896 38.0197L96.6119 37.9751L97.4226 37.9353L98.2214 37.9003L99.0078 37.8707L99.7816 37.8466L100.542 37.8283L101.29 37.8162L102.023 37.8106L102.743 37.8117L103.449 37.8199L104.14 37.8354L104.816 37.8587L105.477 37.89L106.123 37.9296L106.753 37.9778L107.368 38.035L107.967 38.1014L108.55 38.1775L109.117 38.2634L109.668 38.3595L110.202 38.466L110.72 38.5834L111.222 38.7118L111.707 38.8515L112.175 39.0029L112.627 39.1662L113.062 39.3417L113.48 39.5296L113.882 39.7302L114.267 39.9437L114.636 40.1704L114.988 40.4105L115.324 40.6642L115.643 40.9317L115.947 41.2131L116.234 41.5088L116.505 41.8188L116.761 42.1434L117.001 42.4826L117.226 42.8366L117.435 43.2055L117.63 43.5895L117.81 43.9885L117.975 44.4028L118.125 44.8323L118.262 45.2772L118.385 45.7374L118.494 46.213L118.59 46.704L118.673 47.2103L118.743 47.7321L118.801 48.2691L118.847 48.8214L118.881 49.3888L118.903 49.9714L118.914 50.5689L118.914 51.1813L118.904 51.8085L118.883 52.4502L118.853 53.1064L118.813 53.7767L118.763 54.4611L118.705 55.1593L118.638 55.8711L118.564 56.5962L118.481 57.3344L118.39 58.0854L118.293 58.8488L118.188 59.6245L118.077 60.412L117.96 61.211L117.837 62.0212L117.708 62.8422L117.574 63.6736L117.435 64.515L117.291 65.3661L117.143 66.2264L116.991 67.0955L116.835 67.9728L116.676 68.8581L116.513 69.7508L116.347 70.6505L116.179 71.5566L116.008 72.4686L115.834 73.3862L115.659 74.3087L112.519 90.2272L112.331 91.1457L112.144 92.0586L111.956 92.9655L111.768 93.8657L111.58 94.7588L111.392 95.6441L111.203 96.5211L111.014 97.3893L110.825 98.2482L110.635 99.0973L110.445 99.9361L110.254 100.764L110.063 101.581L109.87 102.385L109.676 103.178L109.481 103.958L109.284 104.725L109.086 105.478L108.886 106.217L108.684 106.942L108.48 107.651L108.273 108.346L108.064 109.025L107.852 109.688L107.637 110.335L107.418 110.966L107.197 111.579L106.971 112.176L106.741 112.754L106.507 113.316L106.269 113.859L106.026 114.384L105.778 114.89L105.524 115.378L105.265 115.848L105.001 116.298L104.73 116.729L104.453 117.141L104.169 117.534L103.879 117.907L103.581 118.261L103.277 118.595L102.964 118.91L102.644 119.205L102.316 119.481L101.98 119.737L101.635 119.973L101.282 120.19L100.919 120.387L100.548 120.565L100.167 120.724L99.7763 120.863L99.3762 120.984L98.9662 121.085L98.5462 121.168L98.116 121.233L97.6755 121.278L97.2245 121.306L96.7629 121.316L96.2907 121.308L95.8076 121.282L95.3136 121.239L94.8086 121.18L94.2926 121.103L93.7655 121.01L93.2273 120.901L92.678 120.776L92.1175 120.636L91.5458 120.481L90.963 120.31L90.3691 120.125L89.7642 119.927L89.1482 119.714L88.5214 119.488L87.8837 119.249L87.2352 118.998L86.5762 118.734L85.9067 118.458L85.2269 118.171L84.537 117.873L83.8371 117.564L83.1274 117.245L82.4082 116.916L81.6796 116.578L80.942 116.231L80.1955 115.875L79.4404 115.511L78.677 115.139L77.9057 114.76L77.1267 114.374L76.3403 113.981L75.5469 113.582L74.7468 113.177L73.9405 112.767L73.1282 112.352L72.3104 111.932L71.4874 111.508L70.6597 111.08L69.8277 110.649L68.9918 110.214L55.4765 103.079L54.6487 102.636L53.826 102.193L53.009 101.753L52.1981 101.314L51.394 100.877L50.5972 100.442L49.8082 100.009L49.0275 99.5782L48.2556 99.1498L47.4931 98.7237L46.7405 98.3001L45.9983 97.8788L45.267 97.46L44.5471 97.0437L43.8391 96.6298L43.1435 96.2183L42.4607 95.8092L41.7912 95.4025L41.1355 94.9981L40.4941 94.596L39.8672 94.196L39.2555 93.7981L38.6593 93.4022L38.079 93.0083L37.515 92.6161L36.9677 92.2255L36.4375 91.8365L35.9247 91.4489L35.4296 91.0624L34.9526 90.6771L34.494 90.2926L34.0541 89.9089L33.6331 89.5257L33.2314 89.1429L32.8491 88.7603L32.4866 88.3776L32.144 87.9947L31.8215 87.6113L31.5194 87.2273L31.2377 86.8424L30.9767 86.4564L30.7365 86.0691L30.5171 85.6803L30.3187 85.2897L30.1414 84.8971L29.9852 84.5024L29.8501 84.1052L29.7363 83.7053L29.6436 83.3026L29.5721 82.8967L29.5218 82.4875L29.4926 82.0748L29.4845 81.6584L29.4974 81.238L29.5311 80.8134L29.5856 80.3845L29.6607 79.951L29.7563 79.5127L29.8722 79.0695L30.0083 78.6213L30.1643 78.1677L30.34 77.7087L30.5352 77.2441L30.7497 76.7738L30.9832 76.2976L31.2354 75.8155L31.5061 75.3272L31.7949 74.8327L32.1015 74.3319L32.4257 73.8247L32.767 73.3111L33.1251 72.7909L33.4997 72.2641L33.8903 71.7308L34.2966 71.1908L34.7183 70.6441L35.1548 70.0908L35.6058 69.5309L36.0709 68.9643L36.5496 68.3912L37.0416 67.8115L37.5463 67.2254L38.0633 66.6329L38.5922 66.0342L39.1324 65.4293L39.6837 64.8183L40.2453 64.2014L40.817 63.5788L41.3983 62.9505L41.9885 62.3169L42.5874 61.678L43.1944 61.0341L43.809 60.3854L44.4307 59.7321L45.0591 59.0744L45.6937 58.4128L46.3341 57.7473L46.9797 57.0783L47.6301 56.406L48.2848 55.7309L58.9935 44.8267L59.6571 44.1594L60.3179 43.4965L60.9755 42.8384L61.6298 42.1855L62.2805 41.5384L62.9271 40.8974L63.5697 40.2632L64.2077 39.6362L64.8412 39.0168L65.4698 38.4055L66.0934 37.8028L66.7117 37.2093L67.3246 36.6253L67.9319 36.0514L68.5336 35.488L69.1294 34.9355L69.7192 34.3946L70.303 33.8655L70.8807 33.3489L71.4521 32.845L72.0173 32.3544L72.5762 31.8776L73.1287 31.4148L73.6748 30.9666L74.2145 30.5334L74.7479 30.1155L75.2749 29.7135L75.7956 29.3275L76.31 28.9581L76.8181 28.6056L77.3201 28.2703L77.8161 27.9526L78.306 27.6528L78.79 27.3712L79.2682 27.1081L79.7408 26.8638L80.2078 26.6386L80.6694 26.4327L81.1258 26.2463L81.5771 26.0798L82.0234 25.9333L82.465 25.807L82.902 25.7011L83.3346 25.6157L83.763 25.551L84.1873 25.5072L84.6079 25.4843L85.0249 25.4824L85.4384 25.5016L85.8488 25.542L86.2562 25.6036L86.6608 25.6865L87.063 25.7906L87.4628 25.9159L87.8606 26.0625L88.2565 26.2302L88.6507 26.419L89.0436 26.6288L89.4353 26.8596L89.826 27.1111L90.216 27.3834L90.6054 27.6761L90.9945 27.9892L91.3836 28.3225L91.7727 28.6757L92.1621 29.0486L92.552 29.4411L92.9426 29.8528L93.3341 30.2835L93.7266 30.7329L94.1203 31.2007L94.5154 31.6866L94.912 32.1903L95.3103 32.7114L95.7104 33.2495L96.1125 33.8044L96.5166 34.3756L96.9228 34.9627L97.3314 35.5653L97.7423 36.1831L98.1556 36.8155L98.5714 37.4621L98.9898 38.1225L99.4108 38.7963L99.8344 39.4829L100.261 40.1819L100.69 40.8928L101.121 41.6151L101.555 42.3484L101.992 43.092L102.432 43.8456L102.874 44.6085L103.318 45.3803L103.765 46.1604L104.214 46.9484L104.665 47.7437L105.118 48.5457L105.573 49.354L106.03 50.1679L106.488 50.9871L114.316 65.1991L114.763 66.0237L115.206 66.8441L115.645 67.6599L116.08 68.4706L116.511 69.276L116.936 70.0756L117.356 70.869L117.77 71.6558L118.177 72.4359L118.578 73.2087L118.972 73.974L119.358 74.7315L119.737 75.4809L120.107 76.2219L120.469 76.9542L120.821 77.6777L121.164 78.392L121.497 79.0969L121.82 79.7923L122.131 80.478L122.432 81.1537L122.721 81.8193L122.998 82.4747L123.263 83.1197L123.515 83.7543L123.754 84.3783L123.979 84.9916L124.19 85.5941L124.387 86.1859L124.57 86.7668L124.737 87.3369L124.89 87.8961L125.026 88.4444L125.147 88.9818L125.251 89.5085L125.339 90.0243L125.41 90.5294L125.464 91.0238L125.5 91.5076L125.519 91.9809L125.519 92.4438L125.502 92.8965L125.466 93.3389L125.412 93.7714L125.339 94.194L125.247 94.6069L125.136 95.0102L125.006 95.4041L124.857 95.7889L124.688 96.1647L124.499 96.5316L124.291 96.89L124.063 97.24L123.816 97.5819L123.549 97.9158L123.262 98.242L122.955 98.5608L122.629 98.8724L122.283 99.1769L121.917 99.4748L121.532 99.7661L121.127 100.051L120.703 100.33L120.26 100.604L119.798 100.872L119.316 101.135L118.817 101.392L118.298 101.646L117.762 101.894L117.207 102.139L116.634 102.379L116.044 102.616L115.437 102.849L114.812 103.079L114.171 103.306L113.514 103.531L112.841 103.752L112.152 103.972L111.447 104.189L110.728 104.404L109.995 104.617L109.247 104.829L108.485 105.04L107.711 105.249L106.923 105.457L106.123 105.665L105.312 105.871L104.489 106.077L103.655 106.282L102.81 106.487L101.956 106.692L101.093 106.896L100.22 107.101L99.3394 107.305L98.4508 107.509L97.5549 107.713L96.6523 107.917L95.7436 108.121L94.8293 108.326L93.9098 108.53L78.9704 111.753L78.0506 111.945L77.1357 112.135L76.2262 112.323L75.3226 112.508L74.4253 112.69L73.5348 112.869L72.6516 113.045L71.7762 113.217L70.909 113.386L70.0505 113.55L69.2011 113.709L68.3611 113.864L67.531 114.013L66.7112 114.158L65.9021 114.296L65.1039 114.428L64.3172 114.554L63.5421 114.674L62.7791 114.786L62.0284 114.891L61.2903 114.988L60.5651 115.077L59.853 115.157L59.1544 115.229L58.4693 115.292L57.7981 115.345L57.1409 115.388L56.498 115.422L55.8694 115.445L55.2553 115.457L54.6559 115.458L54.0713 115.447L53.5015 115.425L52.9467 115.391L52.4069 115.344L51.8823 115.285L51.3727 115.213L50.8782 115.127L50.3989 115.028L49.9348 114.915L49.4857 114.788L49.0518 114.647L48.6328 114.491L48.2288 114.32L47.8396 114.135L47.4652 113.934L47.1055 113.717L46.7603 113.485L46.4295 113.237L46.1129 112.973L45.8105 112.693L45.5219 112.397L45.2471 112.084L44.9858 111.755L44.7379 111.409L44.503 111.047L44.2811 110.668L44.0718 110.271L43.8749 109.859L43.6902 109.429L43.5174 108.982L43.3562 108.519L43.2064 108.038L43.0677 107.541L42.9398 107.028L42.8224 106.497L42.7152 105.95L42.618 105.387L42.5303 104.807L42.452 104.211L42.3827 103.6L42.3221 102.972L42.2699 102.329L42.2258 101.67L42.1895 100.996L42.1606 100.307L42.1389 99.6039L42.124 98.886L42.1157 98.154L42.1136 97.4081L42.1175 96.6487L42.127 95.8762L42.1419 95.0909L42.1618 94.293L42.1866 93.4831L42.2158 92.6616L42.2493 91.8287L42.2868 90.9849L42.3279 90.1307L42.3726 89.2665L42.4205 88.3928L42.4714 87.51L42.525 86.6185L42.5812 85.7189L42.6397 84.8117L42.7004 83.8974L42.763 82.9764L42.8275 82.0493L42.8935 81.1166L42.961 80.1789L44.1546 64.9423L44.2339 64.0043L44.3139 63.0714L44.3947 62.1441L44.4762 61.223L44.5585 60.3086L44.6419 59.4015L44.7263 58.5021L44.812 57.611L44.899 56.7287L44.9875 55.8558L45.0777 54.9927L45.1697 54.1398L45.2637 53.2978L45.3599 52.467L45.4584 51.6479L45.5596 50.8409L45.6635 50.0465L45.7705 49.2651L45.8807 48.4971L45.9943 47.7429L46.1117 47.0028L46.233 46.2773L46.3585 45.5667L46.4884 44.8713L46.6231 44.1915L46.7628 43.5275L46.9077 42.8796L47.0581 42.2482L47.2143 41.6335L47.3766 41.0357L47.5452 40.455L47.7204 39.8917L47.9025 39.346L48.0918 38.8179L48.2885 38.3078L48.493 37.8157L48.7055 37.3418L48.9262 36.8861L49.1555 36.4488L49.3935 36.03L49.6407 35.6296L49.8971 35.2478L50.1631 34.8846L50.439 34.5399L50.7249 34.2138L51.0211 33.9062L51.3279 33.6171L51.6453 33.3464L51.9738 33.0941L52.3134 32.8601L52.6643 32.6442L53.0268 32.4464L53.401 32.2665L53.787 32.1043L54.1851 31.9597L54.5954 31.8326L55.018 31.7227L55.453 31.6298L55.9005 31.5537L56.3607 31.4942L56.8336 31.451L57.3192 31.4238L57.8177 31.4125L58.3291 31.4167L58.8534 31.4362L59.3906 31.4706L59.9407 31.5197L60.5037 31.5831L61.0796 31.6605L61.6683 31.7515L62.2697 31.8559L62.8839 31.9734L63.5107 32.1034L64.1499 32.2458L64.8015 32.4001L65.4654 32.566L66.1413 32.7431L66.8291 32.931L67.5287 33.1293L68.2398 33.3378L68.9622 33.5559L69.6956 33.7834L70.4399 34.0198L71.1948 34.2647L71.96 34.5179L72.7352 34.7789L73.5201 35.0473L74.3144 35.3227L75.1178 35.6049L75.9299 35.8934L76.7503 36.1878L77.5787 36.4878L78.4147 36.7931L79.2579 37.1033L80.1079 37.418L80.9643 37.737L81.8266 38.0598L82.6944 38.3862L83.5673 38.7159L84.4448 39.0485L99.5769 44.9032L100.45 45.2477L101.317 45.5914L102.178 45.934L103.033 46.2755L103.881 46.616L104.721 46.9552L105.553 47.2933L106.376 47.6301L107.191 47.9657L107.995 48.3001L108.79 48.6333L109.573 48.9652L110.346 49.296L111.106 49.6258L111.855 49.9545L112.591 50.2822L113.313 50.609L114.022 50.9351L114.717 51.2605L115.398 51.5853L116.064 51.9098L116.714 52.2339L117.349 52.5578L117.967 52.8818L118.569 53.2059L119.154 53.5304L119.722 53.8553L120.272 54.181L120.805 54.5075L121.319 54.8352L121.815 55.1641L122.293 55.4945L122.751 55.8266L123.19 56.1607L123.61 56.4968L124.01 56.8354L124.39 57.1766L124.751 57.5205L125.091 57.8676L125.411 58.2179L125.71 58.5718L125.989 58.9295L126.248 59.2911L126.485 59.657L126.703 60.0273L126.899 60.4024L127.074 60.7823L127.229 61.1674L127.363 61.5579L127.477 61.954L127.57 62.3559L127.642 62.7638L127.694 63.1779L127.726 63.5984L127.737 64.0255L127.728 64.4594L127.699 64.9002L127.651 65.3482L127.583 65.8035L127.495 66.2662L127.389 66.7366L127.263 67.2146L127.119 67.7004L126.957 68.1943L126.776 68.6961L126.577 69.2061L126.361 69.7244L126.128 70.2509L125.878 70.7858L125.611 71.3291L125.328 71.8807L125.03 72.4409L124.715 73.0094L124.386 73.5864L124.042 74.1718L123.683 74.7656L123.311 75.3677L122.925 75.9781L122.526 76.5966L122.114 77.2233L121.69 77.8579L121.254 78.5003L120.807 79.1506L120.349 79.8083L119.88 80.4735L119.401 81.146L118.913 81.8254L118.415 82.5117L117.909 83.2047L117.394 83.904L116.872 84.6094L116.342 85.3207L115.806 86.0376L115.263 86.7599L114.713 87.4871L114.159 88.219L113.599 88.9553L113.034 89.6956L112.465 90.4395L111.893 91.1868L102.52 103.259L101.939 103.998L101.36 104.732L100.784 105.461L100.211 106.184L99.6404 106.901L99.0732 107.611L98.5095 108.314L97.9493 109.009L97.3929 109.696L96.8404 110.374L96.2919 111.042L95.7476 111.702L95.2076 112.35L94.672 112.989L94.1409 113.615L93.6142 114.231L93.0922 114.834L92.5748 115.424L92.0621 116.001L91.554 116.565L91.0507 117.115L90.552 117.65L90.058 118.17L89.5686 118.675L89.0839 119.165L88.6036 119.638L88.1279 120.095L87.6565 120.535L87.1894 120.958L86.7265 121.363L86.2677 121.75L85.8129 122.119L85.362 122.47L84.9148 122.801L84.4711 123.114L84.0308 123.407L83.5938 123.681L83.1599 123.934L82.7289 124.168L82.3006 124.381L81.8748 124.574L81.4514 124.746L81.0301 124.897L80.6108 125.027L80.1932 125.137L79.7771 125.225L79.3623 125.292L78.9486 125.337L78.5358 125.361L78.1236 125.364L77.7119 125.345L77.3004 125.305L76.8889 125.244L76.4771 125.161L76.0649 125.057L75.6521 124.931L75.2383 124.785L74.8235 124.617L74.4074 124.429L73.9897 124.22L73.5704 123.99L73.1492 123.74L72.7258 123.47L72.3002 123.179L71.8722 122.869L71.4415 122.54L71.008 122.191L70.5716 121.823L70.1321 121.437L69.6893 121.032L69.2432 120.609L68.7936 120.168L68.3403 119.71L67.8834 119.235L67.4227 118.743L66.958 118.235L66.4895 117.711L66.0169 117.172L65.5402 116.617L65.0595 116.048L64.5746 115.465L64.0856 114.868L63.5924 114.258L63.0952 113.635L62.5938 112.999L62.0884 112.352L61.5789 111.693L61.0655 111.023L60.5482 110.343L60.0272 109.653L59.5025 108.953L58.9742 108.245L58.4425 107.528L57.9075 106.803L57.3694 106.071L56.8284 105.332L56.2845 104.587L55.7381 103.836L55.1893 103.079L54.6384 102.318L45.7583 89.879L45.216 89.1092L44.6773 88.3429L44.1428 87.5804L43.6129 86.8221L43.0879 86.0684L42.5682 85.3195L42.0544 84.576L41.5468 83.8379L41.0459 83.1057L40.5521 82.3797L40.0659 81.6601L39.5876 80.9472L39.1178 80.2413L38.6569 79.5425L38.2052 78.8512L37.7633 78.1675L37.3317 77.4916L36.9106 76.8238L36.5006 76.1641L36.1021 75.5127L35.7155 74.8698L35.3412 74.2355L34.9798 73.6099L34.6314 72.993L34.2967 72.3851L33.976 71.7861L33.6696 71.1961L33.3779 70.6151L33.1014 70.0432L32.8404 69.4803L32.5953 68.9265L32.3664 68.3818L32.154 67.8461L31.9585 67.3193L31.7801 66.8015L31.6193 66.2925L31.4762 65.7923L31.3512 65.3008L31.2445 64.8179L31.1565 64.3435L31.0872 63.8774L31.0369 63.4195L31.006 62.9697L30.9944 62.5279L31.0025 62.0937L31.0304 61.6672L31.0782 61.2481L31.1461 60.8362L31.2342 60.4314L31.3426 60.0334L31.4713 59.642L31.6205 59.2571L31.7901 58.8783L31.9803 58.5055L32.191 58.1385L32.4222 57.7771L32.6739 57.4209L32.9461 57.0698L33.2387 56.7235L33.5516 56.3818L33.8847 56.0445L34.238 55.7113L34.6113 55.3819L35.0044 55.0562L35.4173 54.7339L35.8496 54.4148L36.3013 54.0986L36.7721 53.7851L37.2618 53.474L37.7701 53.1652L38.2967 52.8585L38.8415 52.5536L39.4041 52.2502L39.9841 51.9483L40.5814 51.6476L41.1954 51.3479L41.826 51.049L42.4726 50.7508L43.135 50.453L43.8127 50.1556L44.5053 49.8584L45.2125 49.5611L45.9337 49.2638L46.6685 48.9663L47.4166 48.6684L48.1774 48.37L48.9504 48.0711L49.7351 47.7716L50.5312 47.4714L51.338 47.1705L52.1551 46.8687L52.9819 46.5661L53.818 46.2627L54.6627 45.9583L55.5157 45.6531L56.3762 45.347L57.2439 45.0401L58.1181 44.7324L58.9982 44.4239L59.8839 44.1147L75.2388 38.8722L76.1291 38.5751L77.0146 38.2807L77.895 37.9893L78.7697 37.7012L79.6384 37.4168L80.5005 37.1364L81.3557 36.8602L82.2035 36.5886L83.0436 36.322L83.8754 36.0606L84.6986 35.8048L85.5129 35.555L86.3179 35.3115L87.1132 35.0746L87.8986 34.8448L88.6736 34.6224L89.438 34.4077L90.1915 34.2012L90.9339 34.0031L91.6647 33.8139L92.384 33.6339L93.0912 33.4636L93.7864 33.3032L94.4692 33.1531L95.1396 33.0137L95.7972 32.8854L96.442 32.7685L97.0738 32.6634L97.6926 32.5704L98.2981 32.4899L98.8904 32.4222L99.4693 32.3676L100.035 32.3265L100.587 32.2992L101.125 32.286L101.65 32.2872L102.162 32.3031L102.66 32.334L103.144 32.3802L103.615 32.442L104.073 32.5195L104.518 32.613L104.949 32.7229L105.367 32.8492L105.772 32.9923L106.165 33.1523L106.544 33.3293L106.911 33.5236L107.266 33.7354L107.608 33.9647L107.938 34.2117L108.257 34.4765L108.563 34.7592L108.859 35.0599L109.143 35.3786L109.415 35.7155L109.678 36.0704L109.929 36.4436L110.17 36.8349L110.401 37.2444L110.623 37.6719L110.834 38.1176L111.037 38.5813L111.23 39.0628L111.415 39.5623L111.592 40.0794L111.76 40.6141L111.92 41.1662L112.073 41.7357L112.218 42.3222L112.356 42.9255L112.488 43.5456L112.613 44.1821L112.732 44.8348L112.845 45.5034L112.952 46.1877L113.054 46.8873L113.151 47.602L113.244 48.3314L113.331 49.0752L113.415 49.833L113.494 50.6044L113.57 51.3891L113.642 52.1867L113.71 52.9967L113.776 53.8188L113.839 54.6525L113.899 55.4973L113.957 56.3529L114.012 57.2187L114.066 58.0942L114.117 58.979L114.167 59.8726L114.215 60.7744L114.262 61.684L114.308 62.6007L114.352 63.5242L114.396 64.4538L114.438 65.3891L114.48 66.3294L115.061 81.6016L115.091 82.5414L115.119 83.4761L115.146 84.4052L115.172 85.3281L115.196 86.2444L115.218 87.1534L115.238 88.0548L115.256 88.9479L115.271 89.8323L115.284 90.7075L115.294 91.5731L115.301 92.4285L115.305 93.2734L115.305 94.1072L115.301 94.9297L115.293 95.7402L115.281 96.5385L115.265 97.3242L115.243 98.0969L115.217 98.8562L115.185 99.6017L115.148 100.333L115.104 101.05L115.054 101.753L114.998 102.44L114.935 103.113L114.864 103.769L114.787 104.411L114.701 105.036L114.607 105.645L114.506 106.237L114.395 106.813L114.275 107.373L114.147 107.916L114.008 108.441L113.86 108.95L113.702 109.441L113.533 109.916L113.354 110.373L113.163 110.813L112.962 111.235L112.749 111.64L112.524 112.028L112.288 112.399L112.039 112.752L111.777 113.088L111.503 113.407L111.217 113.709L110.917 113.994L110.604 114.262L110.277 114.513L109.937 114.748L109.583 114.967L109.215 115.169L108.834 115.355L108.438 115.526L108.028 115.68L107.603 115.82L107.164 115.944L106.711 116.053L106.243 116.148L105.76 116.228L105.263 116.294L104.752 116.346L104.225 116.384L103.685 116.41L103.129 116.422L102.559 116.421L101.975 116.409L101.377 116.384L100.764 116.347L100.137 116.3L99.4966 116.241L98.8421 116.171L98.1739 116.091L97.4923 116.001L96.7975 115.902L96.0896 115.793L95.3689 115.675L94.6356 115.549L93.8901 115.414L93.1325 115.272L92.3632 115.122L91.5824 114.964L90.7906 114.8L89.9879 114.63L89.1749 114.453L88.3517 114.27L87.5189 114.082L86.6768 113.889L85.8258 113.69L84.9663 113.488L84.0987 113.28L83.2235 113.069L82.3412 112.855L81.4521 112.637L80.5568 112.415L79.6557 112.191L78.7493 111.965L77.8382 111.736L63.0402 107.916L62.1296 107.675L61.224 107.434L60.3241 107.193L59.4303 106.953L58.5431 106.713L57.6632 106.474L56.7911 106.234L55.9273 105.995L55.0724 105.756L54.2268 105.517L53.3911 105.279L52.5658 105.04L51.7514 104.801L50.9483 104.562L50.1572 104.323L49.3784 104.083L48.6124 103.843L47.8596 103.602L47.1206 103.36L46.3957 103.118L45.6853 102.874L44.9899 102.628L44.3098 102.382L43.6455 102.133L42.9972 101.883L42.3654 101.63L41.7503 101.375L41.1523 101.118L40.5717 100.858L40.0088 100.595L39.4639 100.328L38.9371 100.058L38.4289 99.7846L37.9393 99.507L37.4685 99.2253L37.0169 98.9391L36.5845 98.6482L36.1716 98.3523L35.7781 98.0513L35.4044 97.7449L35.0504 97.4327L34.7163 97.1147L34.4021 96.7904L34.108 96.4598L33.8338 96.1225L33.5797 95.7783L33.3456 95.4269L33.1315 95.0683L32.9375 94.7021L32.7633 94.328L32.6091 93.946L32.4746 93.5558L32.3598 93.1571L32.2646 92.7499L32.1888 92.3339L32.1323 91.909L32.0949 91.475L32.0765 91.0317L32.0768 90.579L32.0957 90.1167L32.1329 89.6448L32.1881 89.1631L32.2612 88.6715L32.3519 88.17L32.4598 87.6584L32.5848 87.1367L32.7264 86.6048L32.8845 86.0627L33.0586 85.5103L33.2485 84.9477L33.4538 84.3749L33.6741 83.7918L33.9091 83.1985L34.1585 82.595L34.4218 81.9814L34.6986 81.3578L34.9887 80.7242L35.2915 80.0807L35.6067 79.4275L35.9339 78.7647L36.2727 78.0924L36.6227 77.4107L36.9833 76.72L37.3544 76.0203L37.7353 75.3118L38.1257 74.5948L38.5251 73.8695L38.9332 73.1362L39.3495 72.395L39.7736 71.6463L40.2051 70.8904L40.6436 70.1276L41.0886 69.3581L41.5397 68.5824L41.9965 67.8007L42.4586 67.0134L42.9257 66.2209L43.3973 65.4236L43.873 64.6218L44.3524 63.8159L52.7445 49.9296L53.2356 49.1294L53.7248 48.3343L54.2121 47.5448L54.6972 46.7615L55.18 45.9848L55.6603 45.2153L56.1381 44.4535L56.6131 43.6999L57.0854 42.9551L57.5548 42.2196L58.0212 41.4938L58.4846 40.7783L58.945 40.0736L59.4022 39.3802L59.8563 38.6985L60.3072 38.0291L60.755 37.3725L61.1997 36.729L61.6412 36.0992L62.0797 35.4835L62.5152 34.8824L62.9477 34.2963L63.3773 33.7255L63.8041 33.1706L64.2282 32.6319L64.6496 32.1097L65.0686 31.6046L65.4852 31.1168L65.8995 30.6466L66.3118 30.1945L66.7221 29.7607L67.1306 29.3456L67.5374 28.9494L67.9428 28.5723L68.347 28.2148L68.75 27.877L69.1521 27.559L69.5535 27.2613L69.9544 26.9838L70.355 26.7269L70.7555 26.4907L71.1561 26.2753L71.5571 26.0808L71.9586 25.9074L72.3609 25.7552L72.7642 25.6241L73.1687 25.5144L73.5747 25.4259L73.9823 25.3588L74.3918 25.313L74.8034 25.2885L75.2173 25.2853L75.6338 25.3034L76.053 25.3426L76.4751 25.4029L76.9005 25.4841L77.3292 25.5862L77.7615 25.7091L78.1975 25.8524L78.6375 26.0162L79.0816 26.2002L79.53 26.4041L79.9829 26.6278L80.4404 26.8711L80.9026 27.1336L81.3697 27.4152L81.8419 27.7155L82.3192 28.0343L82.8019 28.3712L83.2898 28.7259L83.7833 29.098L84.2823 29.4873L84.7869 29.8934L85.2971 30.3159L85.8131 30.7544L86.3349 31.2085L86.8624 31.6779L87.3957 32.162L87.9348 32.6606L88.4797 33.1731L89.0302 33.6991L89.5865 34.2382L90.1485 34.79L90.7159 35.3539L91.2889 35.9295L91.8673 36.5163L92.451 37.1139L93.0398 37.7217L93.6336 38.3394L94.2323 38.9663L94.8357 39.6021L95.4437 40.2462L96.0559 40.8982L96.6724 41.5575L97.2927 42.2237L97.9167 42.8963L98.5441 43.5748L99.1747 44.2587L99.8083 44.9475L100.444 45.6407L110.707 56.9661L111.334 57.6671L111.957 58.365L112.575 59.0594L113.189 59.7502L113.796 60.437L114.398 61.1195L114.993 61.7973L115.581 62.4703L116.162 63.1383L116.735 63.8008L117.3 64.4579L117.855 65.1091L118.402 65.7544L118.939 66.3935L119.465 67.0263L119.981 67.6526L120.486 68.2723L120.979 68.8852L121.46 69.4913L121.928 70.0905L122.384 70.6826L122.827 71.2675L123.255 71.8454L123.669 72.4159L124.069 72.9793L124.454 73.5354L124.823 74.0842L125.177 74.6258L125.514 75.1601L125.835 75.6873L126.139 76.2073L126.426 76.7202L126.695 77.2261L126.946 77.725L127.179 78.2171L127.394 78.7025L127.59 79.1812L127.767 79.6534L127.925 80.1193L128.063 80.5789L128.181 81.0324L128.28 81.4801L128.358 81.922L128.417 82.3583L128.454 82.7892L128.472 83.2149L128.468 83.6357L128.444 84.0516L128.399 84.4629L128.333 84.8698L128.245 85.2726L128.137 85.6714L128.008 86.0665L127.858 86.458L127.686 86.8463L127.494 87.2315L127.281 87.6139L127.046 87.9936L126.791 88.371L126.516 88.7463L126.219 89.1196L125.903 89.4912L125.565 89.8613L125.208 90.2302L124.831 90.5981L124.434 90.9651L124.018 91.3315L123.583 91.6974L123.128 92.0632L122.655 92.4289L122.164 92.7948L121.654 93.161L121.126 93.5277L120.581 93.8951L120.019 94.2633L119.44 94.6325L118.845 95.0028L118.234 95.3744L117.607 95.7473L116.965 96.1217L116.309 96.4977L115.638 96.8754L114.953 97.2549L114.254 97.6361L113.543 98.0193L112.819 98.4044L112.084 98.7914L111.336 99.1805L110.578 99.5715L109.809 99.9645L109.031 100.36L108.243 100.757L107.445 101.155L106.64 101.556L105.826 101.959L105.006 102.363L104.178 102.769L103.344 103.176L102.504 103.585L101.66 103.996L87.0161 110.983L86.1673 111.38L85.3229 111.775L84.4835 112.166L83.6493 112.552L82.8208 112.935L81.9985 113.312L81.1826 113.685L80.3736 114.052L79.5719 114.413L78.7778 114.767L77.9916 115.115L77.2137 115.457L76.4444 115.79L75.6839 116.116L74.9327 116.433L74.1908 116.742L73.4587 117.042L72.7365 117.333L72.0245 117.613L71.3228 117.884L70.6318 118.144L69.9514 118.393L69.2821 118.63L68.6238 118.856L67.9767 119.069L67.3409 119.27L66.7166 119.458L66.1038 119.633L65.5027 119.794L64.9132 119.941L64.3354 120.074L63.7694 120.192L63.2152 120.295L62.6727 120.383L62.142 120.455L61.623 120.511L61.1157 120.551L60.6201 120.574L60.136 120.581L59.6635 120.571L59.2024 120.543L58.7525 120.498L58.3139 120.435L57.8863 120.354L57.4697 120.254L57.0639 120.137L56.6686 120.001L56.2839 119.847L55.9094 119.673L55.545 119.481L55.1905 119.27L54.8457 119.039L54.5104 118.79L54.1844 118.521L53.8674 118.233L53.5592 117.926L53.2596 117.6L52.9683 117.254L52.6851 116.889L52.4097 116.505L52.1419 116.101L51.8814 115.679L51.628 115.238L51.3814 114.778L51.1414 114.299L50.9076 113.802L50.6798 113.286L50.4578 112.752L50.2413 112.2L50.03 111.631L49.8236 111.044L49.622 110.439L49.4248 109.818L49.2318 109.18L49.0428 108.525L48.8575 107.854L48.6757 107.168L48.497 106.466L48.3215 105.749L48.1487 105.017L47.9784 104.271L47.8106 103.511L47.6449 102.737L47.4811 101.95L47.3192 101.151L47.1589 100.339L47 99.5159L46.8425 98.6812L46.6861 97.8358L46.5306 96.9801L46.3761 96.1145L46.2223 95.2396L46.0692 94.356L45.9167 93.464L45.7647 92.5644L45.613 91.6575L45.4617 90.744L45.3107 89.8244L45.16 88.8993L42.662 72.8676L42.5237 71.9387L42.3873 71.0147L42.2529 70.0964L42.1208 69.1841L41.9912 68.2783L41.8644 67.3796L41.7405 66.4884L41.6198 65.6052L41.5026 64.7305L41.3891 63.8647L41.2796 63.0083L41.1744 62.1617L41.0738 61.3253L40.978 60.4995L40.8873 59.6847L40.8021 58.8813L40.7227 58.0896L40.6493 57.3101L40.5823 56.543L40.522 55.7886L40.4687 55.0473L40.4227 54.3194L40.3844 53.6052L40.3541 52.9048L40.3322 52.2186L40.3188 51.5467L40.3145 50.8895L40.3194 50.247L40.334 49.6196L40.3585 49.0072L40.3933 48.4102L40.4387 47.8286L40.4949 47.2625L40.5624 46.7121L40.6414 46.1774L40.7321 45.6585L40.835 45.1554L40.9503 44.6682L41.0782 44.197L41.2191 43.7416L41.3732 43.3022L41.5407 42.8786L41.722 42.4709L41.9172 42.0789L42.1265 41.7026L42.3503 41.342L42.5886 40.9969L42.8418 40.6672L43.1099 40.3528L43.3931 40.0535L43.6917 39.7692L44.0057 39.4997L44.3353 39.2449L44.6806 39.0045L45.0417 38.7784L45.4187 38.5663L45.8117 38.368L46.2208 38.1834L46.6459 38.012L47.0872 37.8538L47.5445 37.7084L48.0181 37.5756L48.5077 37.4551L49.0135 37.3466L49.5353 37.2499L50.0731 37.1646L50.6268 37.0904L51.1963 37.027L51.7815 36.9742L52.3823 36.9316L52.9985 36.8989L53.63 36.8757L54.2766 36.8618L54.9381 36.8569L55.6142 36.8606L56.3049 36.8726L57.0098 36.8925L57.7286 36.9201L58.4611 36.955L59.2071 36.997L59.9661 37.0456L60.738 37.1006L61.5223 37.1616L62.3187 37.2285L63.1268 37.3007L63.9463 37.3782L64.7768 37.4604L65.6179 37.5473L66.4692 37.6385L67.3302 37.7337L68.2006 37.8326L69.0797 37.935L69.9673 38.0407L70.8628 38.1494L71.7657 38.2608L72.6756 38.3748L73.592 38.4911L74.5143 38.6094L75.442 38.7298L76.3746 38.8518L91.516 40.9303L92.4473 41.0641L93.3735 41.1983L94.294 41.3328L95.2082 41.4678L96.1156 41.6032L97.0157 41.7392L97.9079 41.8759L98.7917 42.0133L99.6666 42.1515L100.532 42.2907L101.388 42.4311L102.233 42.5726L103.067 42.7156L103.889 42.86L104.7 43.0062L105.499 43.1543L106.285 43.3044L107.057 43.4569L107.816 43.6117L108.561 43.7693L109.292 43.9298L110.008 44.0934L110.709 44.2603L111.394 44.4308L112.063 44.6052L112.716 44.7836L113.353 44.9663L113.973 45.1536L114.576 45.3457L115.162 45.543L115.73 45.7456L116.281 45.9538L116.813 46.1679L117.328 46.3881L117.824 46.6148L118.302 46.8481L118.761 47.0884L119.201 47.336L119.623 47.591L120.025 47.8537L120.409 48.1244L120.773 48.4034L121.119 48.6909L121.445 48.9872L121.752 49.2924L122.04 49.6068L122.309 49.9308L122.559 50.2643L122.79 50.6078L123.002 50.9613L123.196 51.3252L123.371 51.6995L123.527 52.0845L123.664 52.4804L123.784 52.8872L123.885 53.3052L123.969 53.7345L124.035 54.1753L124.083 54.6275L124.114 55.0915L124.128 55.5671L124.126 56.0547L124.106 56.5541L124.071 57.0654L124.02 57.5888L123.953 58.1242L123.87 58.6716L123.773 59.2311L123.661 59.8026L123.534 60.3861L123.394 60.9816L123.24 61.589L123.072 62.2082L122.892 62.8391L122.699 63.4818L122.493 64.1359L122.276 64.8014L122.048 65.4782L121.808 66.166L121.557 66.8648L121.297 67.5742L121.026 68.2942L120.746 69.0244L120.457 69.7647L120.159 70.5148L119.852 71.2744L119.538 72.0432L119.216 72.8209L118.887 73.6073L118.551 74.402L118.209 75.2046L117.861 76.0148L117.507 76.8323L117.148 77.6567L116.784 78.4876L116.415 79.3245L116.042 80.1671L115.666 81.0149L115.286 81.8676L114.902 82.7246L108.177 97.4902L107.782 98.3408L107.389 99.1861L106.997 100.025L106.606 100.858L106.217 101.684L105.83 102.503L105.444 103.313L105.06 104.114L104.678 104.907L104.297 105.69L103.919 106.463L103.542 107.225L103.167 107.975L102.794 108.715L102.422 109.442L102.052 110.156L101.684 110.857L101.318 111.545L100.952 112.218L100.589 112.878L100.226 113.522L99.865 114.151L99.5048 114.764L99.1455 115.361L98.787 115.942L98.4291 116.505L98.0717 117.052L97.7146 117.581L97.3577 118.092L97.0007 118.585L96.6434 119.059L96.2858 119.514L95.9275 119.951L95.5684 120.368L95.2083 120.766L94.8469 121.144L94.4841 121.502L94.1196 121.84L93.7531 122.157L93.3846 122.454L93.0137 122.731L92.6402 122.987L92.2638 123.222L91.8845 123.436L91.5018 123.629L91.1157 123.801L90.7258 123.953L90.3319 124.083L89.9339 124.192L89.5315 124.28L89.1245 124.348L88.7126 124.394L88.2957 124.42L87.8736 124.425L87.4461 124.41L87.0129 124.374L86.5739 124.318L86.1289 124.242L85.6778 124.145L85.2204 124.029L84.7564 123.894L84.2859 123.739L83.8086 123.565L83.3244 123.372L82.8333 123.161L82.335 122.932L81.8295 122.684L81.3168 122.419L80.7967 122.137L80.2692 121.837L79.7342 121.521L79.1917 121.189L78.6417 120.841L78.0841 120.477L77.519 120.098L76.9464 119.704L76.3663 119.296L75.7787 118.874L75.1838 118.438L74.5814 117.99L73.9719 117.528L73.3552 117.055L72.7315 116.569L72.1008 116.073L71.4634 115.565L70.8193 115.047L70.1688 114.519L69.512 113.982L68.8491 113.435L68.1804 112.88L67.506 112.317L66.8262 111.746L66.1413 111.168L65.4514 110.583L64.7569 109.992L64.0581 109.395L63.3553 108.793L62.6487 108.186L61.9388 107.574L61.2258 106.959L49.7199 96.8998L49.0165 96.2769L48.3178 95.6567L47.6242 95.0394L46.9362 94.4252L46.2543 93.8144L45.579 93.2072L44.9108 92.6039L44.2501 92.0046L43.5975 91.4096L42.9535 90.819L42.3185 90.2331L41.6931 89.6518L41.0777 89.0755L40.4728 88.5041L39.8788 87.9379L39.2964 87.3768L38.7259 86.8211L38.1677 86.2708L37.6224 85.7258L37.0905 85.1864L36.5722 84.6524L36.0682 84.124L35.5788 83.6011L35.1044 83.0837L34.6454 82.5718L34.2023 82.0653L33.7754 81.5643L33.3651 81.0686L32.9718 80.5782L32.5958 80.093L32.2375 79.613L31.8972 79.138L31.5753 78.6678L31.2719 78.2025L30.9874 77.7418L30.7222 77.2857L30.4763 76.8339L30.2502 76.3863L30.0439 75.9428L29.8578 75.5032L29.6921 75.0673L29.5468 74.6349L29.4222 74.2058L29.3184 73.7799L29.2355 73.3569L29.1737 72.9367L29.1331 72.5189L29.1136 72.1035L29.1155 71.6902L29.1387 71.2787L29.1833 70.8689L29.2492 70.4605L29.3365 70.0534L29.4451 69.6472L29.575 69.2419L29.726 68.837L29.8983 68.4325L30.0915 68.0281L30.3057 67.6237L30.5407 67.2188L30.7962 66.8135L31.0723 66.4075L31.3686 66.0005L31.685 65.5924L32.0212 65.1829L32.377 64.772L32.7522 64.3594L33.1465 63.9449L33.5597 63.5284L33.9913 63.1097L34.4411 62.6887L34.9088 62.2652L35.3941 61.8392L35.8965 61.4104L36.4158 60.9787L36.9515 60.5442L37.5032 60.1066L38.0706 59.6659L38.6532 59.222L39.2506 58.7748L39.8624 58.3244L40.4881 57.8706L41.1273 57.4134L41.7795 56.9529L42.4442 56.4891L43.121 56.0218L43.8094 55.5512L44.5088 55.0773L45.2189 54.6002L45.939 54.1199L46.6686 53.6364L47.4074 53.15L48.1547 52.6606L48.91 52.1684L49.6729 51.6735L50.4427 51.1761L51.219 50.6763L52.0013 50.1743L52.7889 49.6703L53.5815 49.1644L66.5161 41.0234L67.3158 40.527L68.1118 40.0342L68.9037 39.5453L69.691 39.0607L70.4736 38.5809L71.2509 38.1062L72.0225 37.637L72.7883 37.1737L73.5478 36.7169L74.3007 36.2668L75.0467 35.8239L75.7855 35.3886L76.5169 34.9614L77.2405 34.5426L77.9562 34.1328L78.6636 33.7323L79.3627 33.3415L80.0531 32.9609L80.7347 32.591L81.4073 32.2321L82.0708 31.8846L82.7249 31.5489L83.3696 31.2256L84.0047 30.9149L84.6302 30.6173L85.246 30.3332L85.8519 30.0629L86.4479 29.8069L87.0341 29.5655L87.6102 29.339L88.1764 29.1279L88.7326 28.9325L89.2789 28.7531L89.8152 28.5901L90.3416 28.4437L90.8582 28.3143L91.3649 28.2021L91.862 28.1076L92.3494 28.0308L92.8273 27.9721L93.2958 27.9317L93.7549 27.9099L94.2049 27.9069L94.6459 27.9228L95.078 27.9579L95.5014 28.0123L95.9162 28.0862L96.3227 28.1798L96.721 28.2931L97.1113 28.4262L97.4938 28.5793L97.8688 28.7525L98.2363 28.9457L98.5968 29.1591L98.9503 29.3926L99.2971 29.6463L99.6374 29.9201L99.9716 30.2141L100.3 30.5282L100.622 30.8623L100.939 31.2163L101.251 31.5902L101.557 31.9838L101.859 32.397L102.156 32.8297L102.45 33.2816L102.739 33.7526L103.024 34.2426L103.306 34.7512L103.584 35.2783L103.859 35.8236L104.132 36.3868L104.402 36.9677L104.669 37.5659L104.934 38.1811L105.198 38.8131L105.459 39.4614L105.719 40.1258L105.978 40.8058L106.235 41.501L106.492 42.2111L106.747 42.9356L107.002 43.6742L107.256 44.4263L107.51 45.1916L107.764 45.9696L108.017 46.7598L108.271 47.5617L108.524 48.3749L108.778 49.1988L109.031 50.033L109.285 50.8769L109.54 51.73L109.794 52.5918L110.05 53.4617L110.305 54.3393L110.561 55.224L110.818 56.1151L111.074 57.0123L111.332 57.9149L115.671 73.549L115.916 74.4546L116.158 75.3552L116.398 76.2506L116.634 77.14L116.867 78.0232L117.097 78.8995L117.322 79.7686L117.544 80.6301L117.761 81.4834L117.973 82.3282L118.18 83.1641L118.381 83.9907L118.577 84.8076L118.767 85.6144L118.95 86.4108L119.126 87.1964L119.295 87.971L119.457 88.7342L119.611 89.4857L119.756 90.2252L119.894 90.9526L120.022 91.6674L120.14 92.3695L120.25 93.0588L120.349 93.7348L120.438 94.3976L120.516 95.0468L120.583 95.6825L120.639 96.3043L120.683 96.9122L120.715 97.5061L120.735 98.0859L120.742 98.6515L120.736 99.2028L120.716 99.7399L120.683 100.263L120.636 100.771L120.575 101.265L120.5 101.745L120.409 102.21L120.304 102.661L120.183 103.098L120.047 103.521L119.895 103.93L119.727 104.325L119.543 104.706L119.343 105.074L119.126 105.427L118.893 105.768L118.642 106.095L118.375 106.409L118.09 106.71L117.789 106.999L117.47 107.275L117.134 107.539L116.78 107.791L116.409 108.03L116.02 108.259L115.614 108.476L115.19 108.682L114.748 108.877L114.29 109.061L113.813 109.236L113.32 109.4L112.809 109.554L112.281 109.7L111.736 109.835L111.173 109.963L110.595 110.081L109.999 110.191L109.387 110.294L108.759 110.388L108.115 110.475L107.455 110.556L106.779 110.629L106.089 110.696L105.383 110.756L104.663 110.811L103.928 110.86L103.179 110.904L102.416 110.943L101.64 110.977L100.851 111.006L100.05 111.031L99.236 111.052L98.4104 111.07L97.5734 111.084L96.7255 111.094L95.8671 111.102L94.9987 111.107L94.1207 111.109L93.2336 111.109L92.3378 111.107L91.434 111.102L90.5226 111.096L89.6041 111.088L88.679 111.079L87.7479 111.068L86.8113 111.056L70.5897 110.733L69.6502 110.708L68.7159 110.682L67.7873 110.655L66.8651 110.627L65.9497 110.598L65.0416 110.567L64.1413 110.534L63.2495 110.5L62.3665 110.464L61.4929 110.426L60.6291 110.385L59.7757 110.342L58.9331 110.296L58.1017 110.248L57.2819 110.196L56.4743 110.141L55.6792 110.082L54.897 110.019L54.1282 109.953L53.373 109.882L52.6318 109.806L51.9051 109.726L51.1931 109.64L50.4961 109.549L49.8144 109.452L49.1484 109.349L48.4982 109.24L47.8643 109.125L47.2467 109.002L46.6457 108.873L46.0616 108.736L45.4944 108.591L44.9444 108.439L44.4118 108.278L43.8966 108.108L43.399 107.93L42.9191 107.743L42.457 107.546L42.0128 107.339L41.5864 107.123L41.1781 106.896L40.7877 106.659L40.4152 106.411L40.0607 106.152L39.7242 105.882L39.4055 105.601L39.1047 105.308L38.8216 105.003L38.5562 104.686L38.3084 104.356L38.0779 104.015L37.8648 103.66L37.6688 103.293L37.4899 102.913L37.3277 102.52L37.1821 102.113L37.053 101.694L36.94 101.261L36.843 100.814L36.7618 100.354L36.696 99.8799L36.6455 99.3923L36.6099 98.891L36.589 98.3759L36.5824 97.847L36.5899 97.3044L36.6112 96.748L36.646 96.178L36.6939 95.5942L36.7546 94.997L36.8277 94.3862L36.913 93.762L37.0101 93.1246L37.1187 92.474L37.2383 91.8105L37.3686 91.1341L37.5093 90.445L37.66 89.7435L37.8204 89.0298L37.99 88.304L38.1685 87.5665L38.3556 86.8174L38.5509 86.0571L38.754 85.2858L38.9646 84.5039L39.1822 83.7116L39.4066 82.9093L39.6374 82.0973L39.8742 81.276L40.1167 80.4457L40.3646 79.6069L40.6175 78.7599L40.8751 77.9052L41.1371 77.0431L41.4031 76.1741L41.6729 75.2986L41.9461 74.4171L42.2225 73.5301L42.5017 72.638L42.7835 71.7413L47.4583 57.1906L47.7519 56.296L48.0449 55.4065L48.3373 54.5225L48.6291 53.6448L48.9201 52.7738L49.2104 51.91L49.5001 51.054L49.7889 50.2063L50.0771 49.3676L50.3646 48.5382L50.6514 47.7187L50.9376 46.9097L51.2233 46.1115L51.5085 45.3248L51.7933 44.5501L52.0778 43.7877L52.3622 43.0381L52.6465 42.3019L52.9308 41.5795L53.2153 40.8712L53.5001 40.1776L53.7855 39.499L54.0714 38.8359L54.3582 38.1886L54.646 37.5574L54.935 36.9429L55.2253 36.3453L55.5172 35.7648L55.8109 35.202L56.1066 34.657L56.4045 34.1301L56.7048 33.6217L57.0077 33.1319L57.3136 32.661L57.6225 32.2092L57.9348 31.7768L58.2507 31.3639L58.5704 30.9706L58.8942 30.5972L59.2222 30.2437L59.5548 29.9104L59.8922 29.5972L60.2347 29.3042L60.5824 29.0317L60.9356 28.7794L61.2945 28.5476L61.6594 28.3363L62.0305 28.1453L62.408 27.9747L62.7921 27.8245L63.1831 27.6946L63.5811 27.5849L63.9864 27.4953L64.3992 27.4258L64.8196 27.3761L65.2478 27.3462L65.684 27.336L66.1284 27.3451L66.5811 27.3735L67.0423 27.421L67.512 27.4872L67.9905 27.5721L68.4778 27.6753L68.9741 27.7966L69.4793 27.9358L69.9938 28.0925L70.5174 28.2664L71.0502 28.4572L71.5923 28.6647L72.1438 28.8884L72.7046 29.1281L73.2748 29.3834L73.8543 29.6539L74.4431 29.9393L75.0412 30.2391L75.6485 30.5531L76.265 30.8807L76.8906 31.2216L77.5252 31.5755L78.1687 31.9418L78.821 32.3202L79.4819 32.7102L80.1513 33.1115L80.829 33.5235L81.5148 33.9459L82.2086 34.3782L82.9102 34.82L83.6193 35.2709L84.3356 35.7304L85.059 36.198L85.7891 36.6734L86.5258 37.1561L87.2686 37.6457L88.0173 38.1417L88.7716 38.6438L89.5312 39.1514L90.2956 39.6642L91.0646 40.1818L91.8377 40.7037L92.6147 41.2295L105.989 50.4158L106.759 50.9523L107.524 51.4868L108.283 52.0189L109.036 52.5485L109.783 53.0754L110.522 53.5994L111.254 54.1203L111.978 54.6381L112.694 55.1526L113.4 55.6636L114.096 56.1711L114.783 56.675L115.458 57.1752L116.123 57.6716L116.776 58.1642L117.417 58.653L118.045 59.1378L118.661 59.6188L119.262 60.0959L119.85 60.569L120.424 61.0384L120.982 61.5039L121.526 61.9656L122.053 62.4236L122.565 62.8779L123.06 63.3287L123.539 63.7761L124 64.22L124.443 64.6607L124.869 65.0983L125.277 65.5328L125.666 65.9645L126.036 66.3935L126.387 66.8199L126.719 67.2439L127.031 67.6657L127.323 68.0854L127.595 68.5033L127.847 68.9195L128.078 69.3342L128.289 69.7477L128.478 70.1601L128.647 70.5716L128.795 70.9825L128.922 71.3929L129.027 71.8031L129.111 72.2133L129.174 72.6238L129.215 73.0346L129.235 73.4462L129.234 73.8586L129.211 74.2721L129.167 74.6869L129.101 75.1033L129.015 75.5214L128.907 75.9415L128.778 76.3638L128.628 76.7884L128.458 77.2156L128.267 77.6456L128.056 78.0786L127.824 78.5146L127.573 78.954L127.301 79.3969L127.011 79.8435L126.701 80.2938L126.372 80.7481L126.024 81.2065L125.658 81.669L125.274 82.136L124.872 82.6074L124.453 83.0833L124.016 83.5639L123.563 84.0491L123.094 84.5392L122.609 85.0341L122.108 85.5339L121.593 86.0386L121.062 86.5482L120.518 87.0628L119.959 87.5824L119.388 88.1068L118.803 88.6362L118.206 89.1703L117.597 89.7093L116.976 90.253L116.345 90.8014L115.703 91.3543L115.051 91.9116L114.389 92.4732L113.719 93.039L113.04 93.6088L112.352 94.1825L111.658 94.7599L110.956 95.3407L110.248 95.9249L109.533 96.5121L108.813 97.1021L108.088 97.6947L107.359 98.2897L95.4555 107.875L94.7195 108.46L93.9869 109.041L93.258 109.618L92.5331 110.189L91.8126 110.756L91.0967 111.316L90.3859 111.87L89.6803 112.418L88.9802 112.958L88.286 113.491L87.5978 114.015L86.916 114.532L86.2406 115.039L85.572 115.537L84.9103 116.024L84.2557 116.502L83.6084 116.969L82.9685 117.424L82.3362 117.868L81.7115 118.3L81.0947 118.72L80.4857 119.126L79.8846 119.519L79.2917 119.898L78.7068 120.263L78.13 120.613L77.5614 120.949L77.0009 121.269L76.4486 121.573L75.9044 121.861L75.3684 122.133L74.8404 122.388L74.3205 122.626L73.8085 122.846L73.3044 123.048L72.8081 123.233L72.3195 123.399L71.8385 123.546L71.3649 123.675L70.8987 123.784L70.4397 123.875L69.9877 123.945L69.5426 123.996L69.1043 124.027L68.6725 124.038L68.247 124.028L67.8278 123.998L67.4145 123.948L67.007 123.877L66.6052 123.786L66.2086 123.673L65.8173 123.54L65.4308 123.386L65.0491 123.212L64.6718 123.016L64.2989 122.8L63.9299 122.563L63.5647 122.305L63.2031 122.026L62.8448 121.727L62.4897 121.408L62.1373 121.068L61.7877 120.708L61.4404 120.329L61.0953 119.929L60.7521 119.51L60.4107 119.071L60.0708 118.613L59.7322 118.137L59.3947 117.641L59.0582 117.128L58.7222 116.596L58.3869 116.046L58.0518 115.479L57.7169 114.895L57.382 114.294L57.0469 113.677L56.7114 113.044L56.3755 112.395L56.039 111.731L55.7017 111.052L55.3636 110.359L55.0245 109.652L54.6844 108.932L54.3432 108.198L54.0007 107.452L53.657 106.694L53.3119 105.924L52.9655 105.144L52.6177 104.352L52.2685 103.551L51.9179 102.74L51.5659 101.921L51.2125 101.092L50.8578 100.256L50.5018 99.4126L50.1446 98.5621L49.7862 97.7054L49.4267 96.8429L49.0663 95.9751L42.9434 80.9499L42.5959 80.0798L42.2515 79.2144L41.9106 78.3541L41.5734 77.4994L41.2403 76.6507L40.9116 75.8083L40.5877 74.9729L40.269 74.1446L39.9557 73.324L39.6483 72.5113L39.3471 71.707L39.0524 70.9114L38.7648 70.1248L38.4844 69.3476L38.2118 68.58L37.9473 67.8224L37.6913 67.075L37.4441 66.3381L37.2062 65.612L36.9779 64.8968L36.7596 64.1928L36.5517 63.5003L36.3546 62.8193L36.1686 62.1501L35.9942 61.4927L35.8316 60.8475L35.6814 60.2144L35.5437 59.5937L35.419 58.9853L35.3077 58.3894L35.21 57.8061L35.1263 57.2353L35.0569 56.6772L35.0022 56.1317L34.9625 55.5988L34.938 55.0786L34.9291 54.571L34.9361 54.076L34.9591 53.5936L34.9985 53.1236L35.0546 52.666L35.1275 52.2207L35.2175 51.7875L35.3248 51.3665L35.4496 50.9574L35.5921 50.5602L35.7524 50.1746L35.9307 49.8005L36.1273 49.4378L36.342 49.0862L36.5752 48.7456L36.8269 48.4158L37.0972 48.0965L37.3861 47.7876L37.6937 47.4888L38.02 47.1999L38.3651 46.9206L38.7289 46.6508L39.1114 46.3901L39.5126 46.1383L39.9325 45.8952L40.3709 45.6605L40.8278 45.4339L41.3031 45.2152L41.7967 45.0041L42.3084 44.8003L42.8381 44.6035L43.3856 44.4135L43.9507 44.23L44.5332 44.0528L45.133 43.8815L45.7497 43.7158L46.383 43.5556L47.0329 43.4005L47.6989 43.2503L48.3807 43.1047L49.0781 42.9635L49.7907 42.8264L50.5181 42.6931L51.2601 42.5635L52.0161 42.4372L52.7859 42.3141L53.5691 42.1939L54.3652 42.0765L55.1737 41.9615L55.9944 41.8489L56.8266 41.7384L57.67 41.6298L58.5241 41.5229L59.3883 41.4177L60.2623 41.3138L61.1454 41.2113L62.0372 41.11L62.9373 41.0096L63.8449 40.9102L64.7597 40.8116L65.681 40.7138L66.6084 40.6166L67.5412 40.5199L83.6912 38.9594L84.6262 38.8755L85.556 38.7932L86.4801 38.7126L87.3979 38.634L88.309 38.5575L89.2129 38.4833L90.1091 38.4117L90.997 38.3428L91.8762 38.277L92.7463 38.2143L93.6067 38.1551L94.4571 38.0997L95.2969 38.0482L96.1259 38.001L96.9435 37.9583L97.7494 37.9204L98.5432 37.8876L99.3246 37.8602L100.093 37.8384L100.848 37.8226L101.59 37.8131L102.318 37.8102L103.032 37.8141L103.732 37.8253L104.417 37.844L105.087 37.8704L105.742 37.9051L106.382 37.9482L107.006 38L107.614 38.0609L108.207 38.1313L108.783 38.2113L109.344 38.3013L109.888 38.4016L110.415 38.5125L110.927 38.6343L111.421 38.7673L111.9 38.9118L112.361 39.068L112.806 39.2362L113.234 39.4167L113.646 39.6098L114.041 39.8156L114.419 40.0345L114.781 40.2666L115.127 40.5122L115.456 40.7715L115.769 41.0446L116.065 41.3319L116.346 41.6334L116.611 41.9493L116.861 42.2798L117.094 42.625L117.313 42.9851L117.516 43.3601L117.705 43.7502L117.879 44.1554L118.038 44.5759L118.183 45.0117L118.314 45.4628L118.431 45.9293L118.535 46.4111L118.626 46.9084L118.703 47.421L118.768 47.949L118.821 48.4922L118.862 49.0507L118.891 49.6243L118.909 50.213L118.915 50.8166L118.911 51.435L118.897 52.0681L118.872 52.7158L118.838 53.3777L118.794 54.0538L118.741 54.7439L118.679 55.4477L118.609 56.1649L118.531 56.8954L118.445 57.6388L118.351 58.3949L118.251 59.1633L118.144 59.9439L118.03 60.7361L117.911 61.5397L117.785 62.3543L117.654 63.1796L117.518 64.0152L117.377 64.8606L117.232 65.7155L117.082 66.5794L116.928 67.4519L116.771 68.3325L116.61 69.2209L116.446 70.1165L116.279 71.0188L116.109 71.9274L115.937 72.8418L115.763 73.7614L115.587 74.6857L112.631 89.6804L112.443 90.6019L112.255 91.5183L112.067 92.4288L111.879 93.333L111.691 94.2304L111.503 95.1203L111.315 96.0023L111.126 96.8758L110.937 97.7403L110.748 98.5953L110.558 99.4403L110.368 100.275L110.176 101.098L109.984 101.91L109.791 102.71L109.597 103.497L109.401 104.272L109.204 105.033L109.005 105.781L108.804 106.514L108.601 107.233L108.396 107.936L108.188 108.625L107.978 109.297L107.765 109.954L107.548 110.594L107.329 111.218L107.105 111.824L106.878 112.414L106.647 112.985L106.411 113.539L106.171 114.075L105.925 114.592L105.675 115.092L105.419 115.572L105.158 116.033L104.891 116.476L104.618 116.899L104.338 117.304L104.052 117.688L103.759 118.054L103.458 118.4L103.15 118.726L102.835 119.033L102.512 119.32L102.18 119.587L101.84 119.835L101.492 120.064L101.135 120.273L100.769 120.462L100.394 120.632L100.009 120.783L99.6145 120.915L99.2104 121.028L98.7964 121.121L98.3722 121.197L97.9378 121.253L97.4931 121.292L97.0378 121.312L96.5719 121.315L96.0952 121.299L95.6077 121.267L95.1092 121.217L94.5998 121.15L94.0792 121.067L93.5476 120.968L93.0049 120.852L92.451 120.721L91.886 120.574L91.3098 120.413L90.7224 120.237L90.124 120.046L89.5146 119.842L88.8942 119.624L88.2629 119.392L87.6208 119.148L86.9681 118.892L86.3048 118.623L85.6311 118.343L84.9471 118.051L84.2531 117.748L83.5492 117.435L82.8356 117.112L82.1125 116.78L81.3802 116.438L80.6389 116.087L79.8889 115.728L79.1304 115.36L78.3638 114.986L77.5893 114.603L76.8072 114.215L76.0179 113.819L75.2218 113.418L74.4191 113.011L73.6103 112.599L72.7957 112.182L71.9757 111.76L71.1508 111.334L70.3213 110.905L69.4876 110.472L55.9694 103.343L55.1387 102.898L54.3129 102.455L53.4925 102.014L52.6779 101.574L51.8697 101.135L51.0685 100.699L50.2748 100.265L49.4891 99.8331L48.712 99.4034L47.9439 98.9759L47.1853 98.5509L46.4369 98.1282L45.6991 97.7079L44.9724 97.2901L44.2573 96.8748L43.5542 96.4619L42.8638 96.0514L42.1863 95.6433L41.5224 95.2375L40.8725 94.834L40.2369 94.4328L39.6162 94.0337L39.0108 93.6366L38.421 93.2415L37.8473 92.8483L37.2901 92.4568L36.7497 92.0669L36.2265 91.6784L35.7208 91.2913L35.2331 90.9053L34.7635 90.5204L34.3125 90.1363L33.8803 89.7528L33.4671 89.3698L33.0733 88.987L32.6991 88.6044L32.3446 88.2216L32.0102 87.8386L31.696 87.455L31.4022 87.0706L31.1289 86.6853L30.8763 86.2988L30.6446 85.9109L30.4337 85.5214L30.2439 85.1301L30.0752 84.7366L29.9276 84.3409L29.8012 83.9426L29.696 83.5416L29.6119 83.1376L29.5491 82.7305L29.5074 82.3199L29.4868 81.9057L29.4872 81.4876L29.5086 81.0655L29.5508 80.6392L29.6137 80.2084L29.6972 79.773L29.8011 79.3328L29.9252 78.8876L30.0694 78.4371L30.2335 77.9814L30.4172 77.5201L30.6203 77.0532L30.8426 76.5806L31.0837 76.102L31.3435 75.6173L31.6216 75.1265L31.9177 74.6295L32.2315 74.1261L32.5627 73.6163L32.9108 73.1L33.2757 72.5771L33.6569 72.0477L34.0539 71.5116L34.4666 70.9689L34.8943 70.4195L35.3368 69.8635L35.7936 69.3009L36.2643 68.7316L36.7485 68.1558L37.2457 67.5735L37.7554 66.9848L38.2773 66.3898L38.8109 65.7885L39.3557 65.1811L39.9112 64.5677L40.477 63.9485L41.0527 63.3235L41.6376 62.6931L42.2315 62.0573L42.8337 61.4163L43.4438 60.7704L44.0614 60.1198L44.6859 59.4647L45.3169 58.8054L45.9539 58.1421L46.5964 57.4752L47.244 56.8048L47.8963 56.1314L59.2642 44.5544L59.9266 43.8889L60.5862 43.2278L61.2425 42.5718L61.8953 41.9212L62.5444 41.2765L63.1894 40.6383L63.8301 40.0069L64.4664 39.3829L65.0979 38.7668L65.7244 38.1589L66.3459 37.5599L66.962 36.9702L67.5727 36.3903L68.1777 35.8206L68.777 35.2616L69.3704 34.7138L69.9578 34.1776L70.5391 33.6535L71.1142 33.142L71.6831 32.6435L72.2457 32.1585L72.802 31.6873L73.3519 31.2305L73.8954 30.7883L74.4326 30.3613L74.9633 29.9498L75.4878 29.5543L76.0059 29.175L76.5177 28.8125L77.0234 28.4669L77.5229 28.1387L78.0163 27.8283L78.5039 27.5358L78.9855 27.2617L79.4614 27.0063L79.9317 26.7697L80.3965 26.5523L80.856 26.3544L81.3103 26.1761L81.7595 26.0177L82.2039 25.8794L82.6436 25.7614L83.0787 25.6638L83.5096 25.5869L83.9363 25.5307L84.3591 25.4953L84.7782 25.481L85.1937 25.4877L85.6059 25.5155L86.0151 25.5645L86.4213 25.6348L86.8249 25.7263L87.2261 25.8391L87.6251 25.9731L88.022 26.1282L88.4172 26.3046L88.8109 26.5019L89.2033 26.7203L89.5945 26.9595L89.9849 27.2195L90.3746 27.5001L90.7639 27.8012L91.153 28.1225L91.542 28.4639L91.9313 28.8252L92.3209 29.2061L92.711 29.6065L93.102 30.026L93.4938 30.4643L93.8868 30.9213L94.2811 31.3965L94.6767 31.8897L95.074 32.4005L95.4731 32.9286L95.8739 33.4736L96.2768 34.0351L96.6818 34.6129L97.089 35.2063L97.4985 35.8152L97.9103 36.4389L98.3247 37.0772L98.7415 37.7295L99.161 38.3954L99.583 39.0745L100.008 39.7662L100.435 40.4701L100.865 41.1857L101.298 41.9125L101.733 42.6501L102.171 43.3978L102.611 44.1552L103.054 44.9218L103.5 45.6971L103.947 46.4805L104.397 47.2715L104.849 48.0696L105.303 48.8742L105.759 49.6849L106.216 50.501L106.676 51.3221L114.05 64.7086L114.499 65.5355L114.944 66.3584L115.386 67.177L115.823 67.9908L116.256 68.7994L116.685 69.6024L117.108 70.3995L117.525 71.1903L117.936 71.9744L118.341 72.7516L118.739 73.5214L119.13 74.2835L119.514 75.0378L119.889 75.7838L120.256 76.5213L120.613 77.25L120.962 77.9698L121.301 78.6803L121.63 79.3814L121.948 80.0728L122.255 80.7544L122.551 81.4261L122.835 82.0875L123.107 82.7387L123.367 83.3795L123.614 84.0097L123.847 84.6294L124.067 85.2383L124.272 85.8365L124.463 86.4238L124.64 87.0003L124.801 87.566L124.947 88.1207L125.077 88.6646L125.191 89.1977L125.289 89.7199L125.37 90.2313L125.434 90.732L125.481 91.2221L125.51 91.7017L125.521 92.1707L125.515 92.6294L125.49 93.0779L125.446 93.5163L125.385 93.9447L125.304 94.3633L125.204 94.7723L125.085 95.1718L124.947 95.562L124.79 95.943" stroke="#FFC700" stroke-width="0.8"/>
</g>
<defs>
<filter id="filter0_d_242_146" x="0" y="0" width="158" height="158" filterUnits="userSpaceOnUse" color-interpolation-filters="sRGB">
<feFlood flood-opacity="0" result="BackgroundImageFix"/>
<feColorMatrix in="SourceAlpha" type="matrix" values="0 0 0 0 0 0 0 0 0 0 0 0 0 0 0 0 0 0 127 0" result="hardAlpha"/>
<feOffset dy="4"/>
<feGaussianBlur stdDeviation="2"/>
<feComposite in2="hardAlpha" operator="out"/>
<feColorMatrix type="matrix" values="0 0 0 0 0 0 0 0 0 0 0 0 0 0 0 0 0 0 0.25 0"/>
<feBlend mode="normal" in2="BackgroundImageFix" result="effect1_dropShadow_242_146"/>
<feBlend mode="normal" in="SourceGraphic" in2="effect1_dropShadow_242_146" result="shape"/>
</filter>
</defs>
</svg>
