<svg width="80" height="59" viewBox="0 0 80 59" fill="none" xmlns="http://www.w3.org/2000/svg">
<path d="M7.5 37.1143V27.1143H2.5V24.6143H7.5V22.1143H10V19.6143H17.5V22.1143H12.5V24.6143H17.5V27.1143H12.5V37.1143H7.5ZM22.5 37.1143V34.6143H20V32.1143H22.5V29.6143H32.5V27.1143H22.5V24.6143H35V27.1143H37.5V37.1143H22.5ZM25 34.6143H32.5V32.1143H25V34.6143ZM40 37.1143V24.6143H55V27.1143H57.5V37.1143H52.5V27.1143H45V37.1143H40ZM62.5 37.1143V34.6143H60V27.1143H62.5V24.6143H75V27.1143H77.5V32.1143H65V34.6143H75V37.1143H62.5ZM65 29.6143H72.5V27.1143H65V29.6143Z" fill="black"/>
<path d="M24.0811 8.42773H26.9326L27.8604 5.86914H29.3057L28.3779 8.42773H31.3076V8.81836H28.2314L25.8877 15.2637C25.7965 15.5176 25.7054 15.778 25.6143 16.0449C25.5296 16.3118 25.4515 16.5755 25.3799 16.8359C25.3148 17.0898 25.2594 17.3372 25.2139 17.5781C25.1748 17.8125 25.1553 18.0273 25.1553 18.2227C25.1553 18.6719 25.2757 19.0299 25.5166 19.2969C25.764 19.5638 26.1351 19.6973 26.6299 19.6973C27.1117 19.6973 27.5804 19.6061 28.0361 19.4238C28.4919 19.2415 28.9411 18.9616 29.3838 18.584C29.8265 18.2064 30.266 17.7311 30.7021 17.1582C31.1383 16.5788 31.5778 15.8952 32.0205 15.1074L32.5283 14.209L32.792 14.3945L32.2842 15.293C31.7699 16.2044 31.2718 16.9727 30.79 17.5977C30.3083 18.2161 29.8298 18.7174 29.3545 19.1016C28.8857 19.4857 28.4072 19.7624 27.9189 19.9316C27.4372 20.1009 26.9359 20.1855 26.415 20.1855C26.0179 20.1855 25.6663 20.1237 25.3604 20C25.0544 19.8828 24.8005 19.7135 24.5986 19.4922C24.3903 19.2708 24.234 19.0039 24.1299 18.6914C24.0192 18.3789 23.9639 18.0306 23.9639 17.6465C23.9639 17.3079 24.0029 16.9368 24.0811 16.5332C24.1592 16.1296 24.2796 15.7064 24.4424 15.2637L26.7861 8.81836H24.0811V8.42773ZM36.4932 3.28125H37.9482L34.54 12.627C34.9827 11.8848 35.4027 11.2402 35.7998 10.6934C36.2035 10.14 36.6038 9.68424 37.001 9.32617C37.3981 8.96159 37.805 8.69141 38.2217 8.51562C38.6383 8.33333 39.0843 8.24219 39.5596 8.24219C39.9567 8.24219 40.305 8.30729 40.6045 8.4375C40.9105 8.56771 41.1644 8.75326 41.3662 8.99414C41.5745 9.22852 41.7308 9.51172 41.835 9.84375C41.9391 10.1758 41.9912 10.5469 41.9912 10.957C41.9912 11.25 41.9359 11.5951 41.8252 11.9922C41.721 12.3893 41.5876 12.8125 41.4248 13.2617C41.262 13.7109 41.0863 14.1732 40.8975 14.6484C40.7087 15.1172 40.5329 15.5729 40.3701 16.0156C40.2074 16.4583 40.0706 16.8717 39.96 17.2559C39.8558 17.6335 39.8037 17.9557 39.8037 18.2227C39.8037 18.6719 39.9209 19.0299 40.1553 19.2969C40.3962 19.5638 40.7673 19.6973 41.2686 19.6973C41.7048 19.6973 42.1247 19.6029 42.5283 19.4141C42.9385 19.2253 43.3421 18.9421 43.7393 18.5645C44.1429 18.1803 44.5465 17.7018 44.9502 17.1289C45.3538 16.5495 45.7738 15.8757 46.21 15.1074L46.7178 14.209L46.9814 14.3945L46.4736 15.293C45.9984 16.1328 45.5426 16.862 45.1064 17.4805C44.6768 18.0924 44.2438 18.6003 43.8076 19.0039C43.3779 19.401 42.9385 19.6973 42.4893 19.8926C42.04 20.0879 41.5615 20.1855 41.0537 20.1855C40.6566 20.1855 40.305 20.1237 39.999 20C39.6995 19.8828 39.4456 19.7135 39.2373 19.4922C39.0355 19.2708 38.8825 19.0039 38.7783 18.6914C38.6742 18.3789 38.6221 18.0306 38.6221 17.6465C38.6221 17.3665 38.6742 17.0312 38.7783 16.6406C38.889 16.2435 39.0257 15.8171 39.1885 15.3613C39.3512 14.9056 39.527 14.4401 39.7158 13.9648C39.9046 13.4831 40.0804 13.0208 40.2432 12.5781C40.4059 12.1354 40.5394 11.7253 40.6436 11.3477C40.7542 10.9635 40.8096 10.6445 40.8096 10.3906C40.8096 9.88281 40.6891 9.47917 40.4482 9.17969C40.2139 8.88021 39.846 8.73047 39.3447 8.73047C38.902 8.73047 38.4756 8.83464 38.0654 9.04297C37.6553 9.2513 37.2321 9.58333 36.7959 10.0391C36.3662 10.4883 35.9137 11.071 35.4385 11.7871C34.9697 12.5033 34.4587 13.3724 33.9053 14.3945L31.8545 20H30.4092L36.4932 3.28125ZM50.0674 20.1855C48.889 20.1855 47.9808 19.8796 47.3428 19.2676C46.7048 18.6491 46.3857 17.7311 46.3857 16.5137C46.3857 16.1816 46.4118 15.8301 46.4639 15.459C46.5094 15.0879 46.5843 14.707 46.6885 14.3164C46.9229 13.444 47.2516 12.6367 47.6748 11.8945C48.1045 11.1523 48.596 10.5111 49.1494 9.9707C49.7028 9.43034 50.2985 9.00716 50.9365 8.70117C51.5745 8.39518 52.2158 8.24219 52.8604 8.24219C53.5114 8.24219 54.0225 8.39518 54.3936 8.70117C54.7712 9.00716 54.96 9.43685 54.96 9.99023C54.96 10.3027 54.8981 10.6087 54.7744 10.9082C54.6507 11.2077 54.4717 11.4909 54.2373 11.7578C54.0029 12.0247 53.7197 12.2754 53.3877 12.5098C53.0622 12.7376 52.6943 12.9362 52.2842 13.1055C51.7764 13.3203 51.2165 13.4831 50.6045 13.5938C49.9925 13.6979 49.2959 13.75 48.5146 13.75C48.3258 14.2773 48.1761 14.8275 48.0654 15.4004C47.9613 15.9668 47.9092 16.5462 47.9092 17.1387C47.9092 18.0436 48.098 18.6979 48.4756 19.1016C48.8597 19.4987 49.4619 19.6973 50.2822 19.6973C50.9658 19.6973 51.6169 19.5671 52.2354 19.3066C52.8538 19.0397 53.4268 18.6914 53.9541 18.2617C54.4814 17.832 54.9632 17.3438 55.3994 16.7969C55.8356 16.2435 56.2165 15.6803 56.542 15.1074L57.0498 14.209L57.3135 14.3945L56.8057 15.293C56.402 16.0026 55.9593 16.6569 55.4775 17.2559C55.0023 17.8548 54.4814 18.3724 53.915 18.8086C53.3551 19.2383 52.7529 19.5768 52.1084 19.8242C51.4704 20.0651 50.79 20.1855 50.0674 20.1855ZM53.1338 8.63281C52.7236 8.63281 52.3037 8.75326 51.874 8.99414C51.4508 9.23503 51.0407 9.57031 50.6436 10C50.2464 10.4232 49.8753 10.9245 49.5303 11.5039C49.1852 12.0833 48.8857 12.7148 48.6318 13.3984C49.348 13.3854 49.96 13.3236 50.4678 13.2129C50.9756 13.0957 51.4183 12.9492 51.7959 12.7734C52.0954 12.6367 52.3851 12.4609 52.665 12.2461C52.9515 12.0247 53.2021 11.7741 53.417 11.4941C53.6383 11.2142 53.8141 10.9115 53.9443 10.5859C54.0811 10.2604 54.1494 9.92188 54.1494 9.57031C54.1494 9.39453 54.1234 9.24805 54.0713 9.13086C54.0192 9.01367 53.9476 8.91927 53.8564 8.84766C53.7653 8.76953 53.6579 8.71419 53.5342 8.68164C53.4105 8.64909 53.277 8.63281 53.1338 8.63281Z" fill="black"/>
<path d="M25.0578 54.1C24.0178 54.1 23.0844 53.8733 22.2578 53.42C21.4444 52.9533 20.8044 52.32 20.3378 51.52C19.8711 50.7067 19.6378 49.78 19.6378 48.74C19.6378 47.6867 19.8711 46.76 20.3378 45.96C20.8044 45.16 21.4444 44.5333 22.2578 44.08C23.0844 43.6267 24.0178 43.4 25.0578 43.4C25.9511 43.4 26.7578 43.5733 27.4778 43.92C28.1978 44.2667 28.7644 44.7867 29.1778 45.48L28.1178 46.2C27.7578 45.6667 27.3111 45.2733 26.7778 45.02C26.2444 44.7667 25.6644 44.64 25.0378 44.64C24.2911 44.64 23.6178 44.8133 23.0178 45.16C22.4178 45.4933 21.9444 45.9667 21.5978 46.58C21.2511 47.1933 21.0778 47.9133 21.0778 48.74C21.0778 49.5667 21.2511 50.2867 21.5978 50.9C21.9444 51.5133 22.4178 51.9933 23.0178 52.34C23.6178 52.6733 24.2911 52.84 25.0378 52.84C25.6644 52.84 26.2444 52.7133 26.7778 52.46C27.3111 52.2067 27.7578 51.82 28.1178 51.3L29.1778 52.02C28.7644 52.7 28.1978 53.22 27.4778 53.58C26.7578 53.9267 25.9511 54.1 25.0578 54.1ZM31.8111 54V39.16H33.2311V54H31.8111ZM41.5221 54.1C40.6288 54.1 39.8488 53.9333 39.1821 53.6C38.5155 53.2667 37.9955 52.7667 37.6221 52.1C37.2621 51.4333 37.0821 50.6 37.0821 49.6V43.5H38.5021V49.44C38.5021 50.56 38.7755 51.4067 39.3221 51.98C39.8821 52.54 40.6621 52.82 41.6621 52.82C42.3955 52.82 43.0288 52.6733 43.5621 52.38C44.1088 52.0733 44.5221 51.6333 44.8021 51.06C45.0955 50.4867 45.2421 49.8 45.2421 49V43.5H46.6621V54H45.3021V51.12L45.5221 51.64C45.1888 52.4133 44.6688 53.02 43.9621 53.46C43.2688 53.8867 42.4555 54.1 41.5221 54.1ZM56.0396 54.1C55.1196 54.1 54.293 53.8933 53.5596 53.48C52.8263 53.0533 52.2463 52.44 51.8196 51.64C51.393 50.84 51.1796 49.8733 51.1796 48.74C51.1796 47.5933 51.393 46.6267 51.8196 45.84C52.2596 45.04 52.8463 44.4333 53.5796 44.02C54.313 43.6067 55.133 43.4 56.0396 43.4C57.0396 43.4 57.933 43.6267 58.7196 44.08C59.5196 44.52 60.1463 45.14 60.5996 45.94C61.053 46.74 61.2796 47.6733 61.2796 48.74C61.2796 49.7933 61.053 50.7267 60.5996 51.54C60.1463 52.34 59.5196 52.9667 58.7196 53.42C57.933 53.8733 57.0396 54.1 56.0396 54.1ZM50.6196 54V39.16H52.0396V46.6L51.8396 48.72L51.9796 50.84V54H50.6196ZM55.9396 52.84C56.6863 52.84 57.353 52.6733 57.9396 52.34C58.5263 51.9933 58.993 51.5133 59.3396 50.9C59.6863 50.2733 59.8596 49.5533 59.8596 48.74C59.8596 47.9133 59.6863 47.1933 59.3396 46.58C58.993 45.9667 58.5263 45.4933 57.9396 45.16C57.353 44.8133 56.6863 44.64 55.9396 44.64C55.193 44.64 54.5196 44.8133 53.9196 45.16C53.333 45.4933 52.8663 45.9667 52.5196 46.58C52.1863 47.1933 52.0196 47.9133 52.0196 48.74C52.0196 49.5533 52.1863 50.2733 52.5196 50.9C52.8663 51.5133 53.333 51.9933 53.9196 52.34C54.5196 52.6733 55.193 52.84 55.9396 52.84Z" fill="black"/>
</svg>
